<?xml version="1.0" encoding="utf-8"?>
<svg width="387" height="503" viewBox="0 0 387 503" fill="none" xmlns="http://www.w3.org/2000/svg">
  <g>
    <g>
      <path d="M10 0L377 0C382.524 0 387 4.4764 387 10L387 459C387 464.524 382.524 469 377 469L10 469C4.4764 469 0 464.524 0 459L0 10C0 4.4764 4.4764 0 10 0L10 0Z" fill="#BBDEFB" transform="translate(0 34)" />
      <path d="M10 0L103 0C108.524 0 113 4.4764 113 10L113 44L0 44L0 10C0 4.4764 4.47641 0 10 0L10 0Z" fill="#BBDEFB" transform="translate(274 0)" />
      <path d="M10 0L210 0C215.524 0 220 4.4764 220 10L220 15C220 20.5236 215.524 25 210 25L10 25C4.4764 25 0 20.5236 0 15L0 10C0 4.4764 4.4764 0 10 0L10 0Z" fill="#BBDEFB" transform="translate(44 0)" />
      <path d="M0.0135803 8.97556C0.00454712 9.14516 0 9.31594 0 9.48779C0 14.7352 4.25259 18.9878 9.5 18.9878C14.7474 18.9878 19 14.7352 19 9.48779C19 4.40351 15.0077 0.253172 9.98642 2.67029e-05C9.7204 5.00919 5.57556 8.98779 0.5 8.98779C0.336853 8.98779 0.174683 8.98368 0.0135803 8.97556Z" fill="#BBDEFB" fill-rule="evenodd" transform="translate(264 25.018)" />
    </g>
  </g>
</svg>