<?xml version="1.0" encoding="utf-8"?>
<svg width="218" height="218" viewBox="0 0 218 218" fill="none" xmlns="http://www.w3.org/2000/svg">
  <g transform="translate(4 4)">
    <g>
      <path d="M0 50C0 22.3858 22.3858 0 50 0C77.6142 0 100 22.3858 100 50C100 77.6142 77.6142 100 50 100C22.3858 100 0 77.6142 0 50Z" fill="none" stroke-width="8" stroke="#808080" />
      <path d="M0 50C0 22.3858 22.3858 0 50 0C77.6142 0 100 22.3858 100 50C100 77.6142 77.6142 100 50 100C22.3858 100 0 77.6142 0 50Z" fill="none" stroke-width="8" stroke="#000000" transform="translate(110 0)" />
    </g>
    <g transform="translate(0 110)">
      <path d="M0 50C0 22.3858 22.3858 0 50 0C77.6142 0 100 22.3858 100 50C100 77.6142 77.6142 100 50 100C22.3858 100 0 77.6142 0 50Z" fill="none" stroke-width="8" stroke="#000000" />
      <path d="M0 50C0 22.3858 22.3858 0 50 0C77.6142 0 100 22.3858 100 50C100 77.6142 77.6142 100 50 100C22.3858 100 0 77.6142 0 50Z" fill="none" stroke-width="8" stroke="#B2B2B2" transform="translate(110 0)" />
    </g>
  </g>
</svg>