<?xml version="1.0" encoding="utf-8"?>
<svg width="69.95" height="13" viewBox="0 0 69.95 13" fill="none" xmlns="http://www.w3.org/2000/svg">
  <defs>
    <clipPath id="clip_path_1">
      <rect width="69.95" height="13" />
    </clipPath>
  </defs>
  <g clip-path="url(#clip_path_1)">
    <g>
      <g transform="translate(52.022 3.545)">
        <path d="M9.19848 3.6273C8.97013 2.61997 8.41336 1.71715 7.61577 1.06086C6.81819 0.404582 5.82504 0.0320862 4.79261 0.00197976C3.76016 -0.0281267 2.74699 0.285863 1.91253 0.894555C1.07805 1.50325 0.46962 2.3721 0.182952 3.3644C-0.103716 4.35672 -0.0523511 5.41616 0.328965 6.37608C0.710283 7.336 1.39991 8.14193 2.28936 8.66704C3.1788 9.19214 4.21758 9.40665 5.24226 9.27681C6.26695 9.14696 7.2194 8.68015 7.94976 7.94979C7.94976 7.94979 6.38709 6.38712 6.38709 6.38712C6.00334 6.7709 5.50288 7.01618 4.96447 7.08441C4.42605 7.15262 3.88021 7.0399 3.41286 6.76401C2.94551 6.48809 2.58314 6.06462 2.38279 5.56023C2.18243 5.05584 2.15544 4.49916 2.30607 3.97776C2.45669 3.45636 2.7764 2.99982 3.21485 2.67997C3.65333 2.36015 4.1857 2.19516 4.72819 2.21098C5.27069 2.2268 5.79251 2.42254 6.21161 2.76736C6.6307 3.1122 6.92326 3.5866 7.04324 4.1159C7.04324 4.1159 9.19848 3.6273 9.19848 3.6273Z" fill="#4F679E" fill-rule="evenodd" transform="scale(1 1)" />
        <path d="M0 1.20924C0 0.541393 0.54143 0 1.20932 0C1.87721 0 2.41863 0.541393 2.41863 1.20924C2.41863 1.87708 1.87721 2.41847 1.20932 2.41847C0.54143 2.41847 0 1.87708 0 1.20924Z" fill="#4F679E" fill-rule="evenodd" transform="matrix(1 0 0 1 6.905 6.902)" />
        <path d="M0 1.10377C0 0.494176 0.494149 0 1.10371 0C1.71328 0 2.20743 0.494176 2.20743 1.10377C2.20743 1.71337 1.71328 2.20755 1.10371 2.20755C0.494149 2.20755 0 1.71337 0 1.10377Z" fill="#4F679E" fill-rule="evenodd" transform="matrix(1 0 0 1 7.021 2.81)" />
        <path d="M0 1.10378C0 0.494177 0.494146 0 1.10371 0C1.71327 0 2.20741 0.494177 2.20741 1.10378C2.20741 1.71337 1.71327 2.20755 1.10371 2.20755C0.494146 2.20755 0 1.71337 0 1.10378Z" fill="#4F679E" fill-rule="evenodd" transform="matrix(1 0 0 1 6.106 6.021)" />
        <path d="M0 1.10377C0 0.494175 0.494148 0 1.10371 0C1.71328 0 2.20742 0.494175 2.20742 1.10377C2.20742 1.71337 1.71328 2.20754 1.10371 2.20754C0.494148 2.20754 0 1.71337 0 1.10377Z" fill="#4F679E" fill-rule="evenodd" transform="matrix(1 0 0 1 3.637 3.556)" />
        <path d="M1.81903 0.290712C1.81903 0.290712 2.84169 1.2448 2.84169 1.2448C3.27842 1.65224 3.30215 2.33635 2.8947 2.77307C2.8947 2.77307 2.8947 2.77307 2.8947 2.77307C2.48724 3.20978 1.8031 3.2335 1.36638 2.82606C1.36638 2.82606 0.343719 1.87198 0.343719 1.87198C-0.0930066 1.46454 -0.116731 0.780423 0.290721 0.343709C0.290721 0.343709 0.290721 0.343709 0.290721 0.343709C0.698173 -0.0930047 1.38231 -0.116727 1.81903 0.290712C1.81903 0.290712 1.81903 0.290712 1.81903 0.290712Z" fill="#4F679E" transform="matrix(1 0 0 1 6.141 6.031)" />
      </g>
      <g transform="translate(62.347 0.501)">
        <path d="M6.84231 2.40291C6.6402 1.79107 6.2723 1.24676 5.77923 0.830056C5.28617 0.413354 4.68712 0.140463 4.0482 0.0415033C3.40931 -0.0574562 2.75536 0.0213633 2.15857 0.269265C1.56178 0.517164 1.04535 0.924503 0.666287 1.44632C0.287219 1.96815 0.0602499 2.58415 0.0104322 3.22637C-0.0393855 3.86858 0.0898853 4.512 0.383977 5.08565C0.678067 5.65929 1.12554 6.14083 1.67701 6.47713C2.22848 6.81343 2.8625 6.99139 3.50909 6.99139C3.50909 6.99139 3.50909 4.79476 3.50909 4.79476C3.2688 4.79476 3.0332 4.72863 2.82825 4.60365C2.62333 4.47869 2.45703 4.29972 2.34774 4.08655C2.23846 3.87338 2.19041 3.63427 2.20892 3.39561C2.22743 3.15695 2.31177 2.92804 2.45266 2.73411C2.59352 2.54018 2.78544 2.38882 3.00722 2.29668C3.229 2.20457 3.47201 2.17527 3.70944 2.21205C3.94688 2.24883 4.16948 2.35024 4.35273 2.50508C4.53596 2.65995 4.67267 2.86221 4.74779 3.08959C4.74779 3.08959 6.84231 2.40291 6.84231 2.40291Z" fill="#4F679E" fill-rule="evenodd" transform="scale(1 1)" />
        <path d="M0 5.34703C0.278122 5.97226 0.719844 6.51085 1.27856 6.90595C1.83728 7.30106 2.49228 7.53804 3.17448 7.5919C3.85666 7.64577 4.54075 7.51452 5.15454 7.21198C5.76835 6.90945 6.28913 6.44687 6.66192 5.87303C7.03472 5.29918 7.24574 4.63536 7.27269 3.9516C7.29963 3.26782 7.14153 2.58946 6.81506 1.98805C6.48859 1.38664 6.00585 0.884502 5.41775 0.534598C4.82967 0.184694 4.15804 0 3.47372 0C3.47372 0 3.47372 2.19928 3.47372 2.19928C3.76218 2.19928 4.0453 2.27713 4.29319 2.42463C4.54109 2.57211 4.74456 2.78379 4.88219 3.0373C5.01979 3.29079 5.08644 3.57674 5.07507 3.86497C5.06372 4.1532 4.97477 4.43302 4.81763 4.67489C4.66049 4.91678 4.44097 5.11178 4.18224 5.23931C3.92351 5.36681 3.63514 5.42216 3.34758 5.39946C3.06004 5.37673 2.78394 5.27684 2.54843 5.11029C2.31291 4.94374 2.12672 4.71672 2.00947 4.45318C2.00947 4.45318 0 5.34703 0 5.34703Z" fill="#4F679E" fill-rule="evenodd" transform="matrix(1 0 0 1 0.328 4.794)" />
        <path d="M0 1.10376C0 0.494171 0.494145 0 1.10371 0C1.71327 0 2.20741 0.494171 2.20741 1.10376C2.20741 1.71335 1.71327 2.20753 1.10371 2.20753C0.494145 2.20753 0 1.71335 0 1.10376Z" fill="#4F679E" fill-rule="evenodd" transform="matrix(1 0 0 1 0.218 8.585)" />
        <path d="M0 1.10377C0 0.494175 0.494149 0 1.10371 0C1.71328 0 2.20743 0.494175 2.20743 1.10377C2.20743 1.71337 1.71328 2.20754 1.10371 2.20754C0.494149 2.20754 0 1.71337 0 1.10377Z" fill="#4F679E" fill-rule="evenodd" transform="matrix(1 0 0 1 4.701 1.695)" />
        <path d="M0.891943 0C0.891943 0 1.24872 0 1.24872 0C1.74139 0 2.14066 0.399265 2.14066 0.891932C2.14066 0.891932 2.14066 1.3156 2.14066 1.3156C2.14066 1.80827 1.74139 2.20753 1.24872 2.20753C1.24872 2.20753 0.891943 2.20753 0.891943 2.20753C0.399269 2.20753 0 1.80827 0 1.3156C0 1.3156 0 0.891932 0 0.891932C0 0.399265 0.399269 0 0.891943 0C0.891943 0 0.891943 0 0.891943 0Z" fill="#4F679E" transform="matrix(1 0 0 1 2.564 4.784)" />
      </g>
      <g transform="translate(38.62 3.523)">
        <path d="M7.17321 3.58654C7.17321 3.11554 7.08044 2.64917 6.90019 2.21402C6.71995 1.77889 6.45576 1.38352 6.12271 1.05047C5.78967 0.717424 5.39429 0.453234 4.95914 0.272997C4.524 0.0927602 4.05761 0 3.58662 0C3.1156 0 2.64923 0.0927602 2.21407 0.272997C1.77894 0.453234 1.38354 0.717424 1.05051 1.05047C0.717457 1.38352 0.453263 1.77889 0.273024 2.21402C0.092784 2.64917 0 3.11554 0 3.58654C0 3.58654 2.41077 3.58654 2.41077 3.58654C2.41077 3.43213 2.44118 3.27923 2.50027 3.13656C2.55936 2.99392 2.64597 2.8643 2.75517 2.75511C2.86436 2.64593 2.99399 2.55931 3.13663 2.50021C3.2793 2.44112 3.4322 2.41071 3.58662 2.41071C3.74101 2.41071 3.89391 2.44112 4.03658 2.50021C4.17924 2.55931 4.30887 2.64593 4.41804 2.75511C4.52724 2.8643 4.61384 2.99392 4.67293 3.13656C4.73203 3.27923 4.76244 3.43213 4.76244 3.58654C4.76244 3.58654 7.17321 3.58654 7.17321 3.58654Z" fill="#4F679E" fill-rule="evenodd" transform="matrix(1 0 0 1 0.008 0.007)" />
        <path d="M7.17326 3.58654C7.17326 3.11554 7.08049 2.64917 6.90025 2.21402C6.72 1.77889 6.45581 1.38352 6.12276 1.05047C5.78971 0.717424 5.39433 0.453234 4.95918 0.272997C4.52404 0.0927602 4.05764 0 3.58664 0C3.11563 0 2.64925 0.0927602 2.21409 0.272997C1.77895 0.453234 1.38355 0.717424 1.05052 1.05047C0.717462 1.38352 0.453267 1.77889 0.273026 2.21402C0.0927844 2.64917 0 3.11554 0 3.58654C0 3.58654 2.41078 3.58654 2.41078 3.58654C2.41078 3.43213 2.4412 3.27923 2.50029 3.13656C2.55938 2.99392 2.64599 2.8643 2.75519 2.75511C2.86439 2.64593 2.99401 2.55931 3.13665 2.50021C3.27932 2.44112 3.43222 2.41071 3.58664 2.41071C3.74104 2.41071 3.89394 2.44112 4.03661 2.50021C4.17928 2.55931 4.3089 2.64593 4.41807 2.75511C4.52727 2.8643 4.61388 2.99392 4.67297 3.13656C4.73206 3.27923 4.76248 3.43213 4.76248 3.58654C4.76248 3.58654 7.17326 3.58654 7.17326 3.58654Z" fill="#4F679E" fill-rule="evenodd" transform="matrix(1 0 0 1 4.78 0.007)" />
        <path d="M3.40243e-07 8.11658C3.40243e-07 8.11658 0 1.20411 0 1.20411C0 0.539017 0.539005 0 1.2041 0C1.2041 0 1.2041 0 1.2041 0C1.8692 0 2.4082 0.539017 2.4082 1.20411C2.4082 1.20411 2.4082 8.11658 2.4082 8.11658C2.4082 8.78168 1.8692 9.32069 1.2041 9.32069C1.2041 9.32069 1.2041 9.32069 1.2041 9.32069C0.539005 9.32069 3.40243e-07 8.78168 3.40243e-07 8.11658C3.40243e-07 8.11658 3.40243e-07 8.11658 3.40243e-07 8.11658Z" fill="#4F679E" transform="scale(1 1)" />
        <path d="M4.76837e-07 5.70837C4.76837e-07 5.70837 0 1.20411 0 1.20411C0 0.539017 0.539021 0 1.20414 0C1.20414 0 1.20414 0 1.20414 0C1.86925 0 2.40827 0.539017 2.40827 1.20411C2.40827 1.20411 2.40827 5.70837 2.40827 5.70837C2.40827 6.37347 1.86925 6.91248 1.20414 6.91248C1.20414 6.91248 1.20414 6.91248 1.20414 6.91248C0.539021 6.91248 4.76837e-07 6.37347 4.76837e-07 5.70837C4.76837e-07 5.70837 4.76837e-07 5.70837 4.76837e-07 5.70837Z" fill="#4F679E" transform="matrix(1 0 0 1 4.773 2.408)" />
        <path d="M0 5.70837C0 5.70837 0 1.20411 0 1.20411C0 0.539017 0.539035 0 1.20417 0C1.20417 0 1.20417 0 1.20417 0C1.8693 0 2.40834 0.539017 2.40834 1.20411C2.40834 1.20411 2.40834 5.70837 2.40834 5.70837C2.40834 6.37347 1.8693 6.91248 1.20417 6.91248C1.20417 6.91248 1.20417 6.91248 1.20417 6.91248C0.539035 6.91248 0 6.37347 0 5.70837C0 5.70837 0 5.70837 0 5.70837Z" fill="#4F679E" transform="matrix(1 0 0 1 9.546 2.408)" />
      </g>
      <g transform="translate(25.175 3.679)">
        <path d="M7.17316 3.58656C7.17316 3.11555 7.08039 2.64918 6.90015 2.21403C6.7199 1.7789 6.45572 1.38352 6.12267 1.05048C5.78963 0.717427 5.39425 0.453236 4.95911 0.272998C4.52397 0.0927606 4.05758 0 3.58659 0C3.11558 0 2.64921 0.0927606 2.21406 0.272998C1.77892 0.453236 1.38353 0.717427 1.0505 1.05048C0.717452 1.38352 0.45326 1.7789 0.273022 2.21403C0.0927833 2.64918 0 3.11555 0 3.58656C0 3.58656 2.41075 3.58656 2.41075 3.58656C2.41075 3.43214 2.44117 3.27924 2.50026 3.13658C2.55935 2.99393 2.64595 2.86431 2.75515 2.75512C2.86435 2.64595 2.99397 2.55932 3.13661 2.50023C3.27927 2.44113 3.43217 2.41072 3.58659 2.41072C3.74099 2.41072 3.89389 2.44113 4.03655 2.50023C4.17922 2.55932 4.30884 2.64595 4.41801 2.75512C4.52721 2.86431 4.61381 2.99393 4.6729 3.13658C4.732 3.27924 4.76241 3.43214 4.76241 3.58656C4.76241 3.58656 7.17316 3.58656 7.17316 3.58656Z" fill="#4F679E" fill-rule="evenodd" transform="matrix(1 0 0 1 0.007 0.007)" />
        <path d="M7.1732 3.58656C7.1732 3.11555 7.08043 2.64918 6.90019 2.21403C6.71994 1.7789 6.45576 1.38352 6.12271 1.05048C5.78966 0.717427 5.39428 0.453236 4.95914 0.272998C4.524 0.0927606 4.0576 0 3.58661 0C3.1156 0 2.64922 0.0927606 2.21407 0.272998C1.77893 0.453236 1.38354 0.717427 1.05051 1.05048C0.717456 1.38352 0.453263 1.7789 0.273023 2.21403C0.0927839 2.64918 0 3.11555 0 3.58656C0 3.58656 2.41076 3.58656 2.41076 3.58656C2.41076 3.43214 2.44118 3.27924 2.50027 3.13658C2.55936 2.99393 2.64597 2.86431 2.75517 2.75512C2.86436 2.64595 2.99398 2.55932 3.13663 2.50023C3.27929 2.44113 3.43219 2.41072 3.58661 2.41072C3.74101 2.41072 3.89391 2.44113 4.03657 2.50023C4.17924 2.55932 4.30886 2.64595 4.41803 2.75512C4.52723 2.86431 4.61384 2.99393 4.67293 3.13658C4.73202 3.27924 4.76244 3.43214 4.76244 3.58656C4.76244 3.58656 7.1732 3.58656 7.1732 3.58656Z" fill="#4F679E" fill-rule="evenodd" transform="matrix(1 0 0 1 4.779 0.007)" />
        <path d="M3.40252e-07 8.11658C3.40252e-07 8.11658 0 1.20411 0 1.20411C0 0.539017 0.539018 0 1.20413 0C1.20413 0 1.20413 0 1.20413 0C1.86925 0 2.40826 0.539017 2.40826 1.20411C2.40826 1.20411 2.40826 8.11658 2.40826 8.11658C2.40826 8.78168 1.86925 9.32069 1.20413 9.32069C1.20413 9.32069 1.20413 9.32069 1.20413 9.32069C0.539018 9.32069 3.40252e-07 8.78168 3.40252e-07 8.11658C3.40252e-07 8.11658 3.40252e-07 8.11658 3.40252e-07 8.11658Z" fill="#4F679E" transform="scale(1 1)" />
        <path d="M4.76837e-07 5.70838C4.76837e-07 5.70838 0 1.20411 0 1.20411C0 0.539018 0.539021 0 1.20413 0C1.20413 0 1.20413 0 1.20413 0C1.86925 0 2.40827 0.539018 2.40827 1.20411C2.40827 1.20411 2.40827 5.70838 2.40827 5.70838C2.40827 6.37348 1.86925 6.91249 1.20414 6.91249C1.20414 6.91249 1.20414 6.91249 1.20414 6.91249C0.539021 6.91249 4.76837e-07 6.37348 4.76837e-07 5.70838C4.76837e-07 5.70838 4.76837e-07 5.70838 4.76837e-07 5.70838Z" fill="#4F679E" transform="matrix(1 0 0 1 4.772 2.408)" />
        <path d="M0 5.70838C0 5.70838 0 1.20411 0 1.20411C0 0.539018 0.539002 0 1.2041 0C1.2041 0 1.2041 0 1.2041 0C1.86919 0 2.40819 0.539018 2.40819 1.20411C2.40819 1.20411 2.40819 5.70838 2.40819 5.70838C2.40819 6.37348 1.86919 6.91249 1.2041 6.91249C1.2041 6.91249 1.2041 6.91249 1.2041 6.91249C0.539002 6.91249 0 6.37348 0 5.70838C0 5.70838 0 5.70838 0 5.70838Z" fill="#4F679E" transform="matrix(1 0 0 1 9.543 2.408)" />
      </g>
      <g transform="translate(14.379 3.545)">
        <path d="M9.18027 3.5501C8.9383 2.56113 8.37889 1.67872 7.58767 1.03794C6.79645 0.397163 5.81704 0.0333423 4.79937 0.00218267C3.78171 -0.0289787 2.78187 0.274232 1.95293 0.865396C1.124 1.45656 0.511639 2.3031 0.209612 3.27541C-0.0924139 4.24772 -0.0674596 5.29221 0.280633 6.249C0.628757 7.20578 1.28082 8.02212 2.13704 8.57303C2.99326 9.12394 4.00643 9.37908 5.02143 9.29936C6.03645 9.21966 6.99739 8.80949 7.75711 8.13166C7.75711 8.13166 6.28587 6.48267 6.28587 6.48267C5.88668 6.83882 5.38176 7.05433 4.84842 7.09622C4.31508 7.1381 3.78271 7.00406 3.33282 6.71457C2.88292 6.42511 2.54029 5.99616 2.35739 5.49343C2.17448 4.99068 2.16136 4.44186 2.32007 3.93095C2.47877 3.42007 2.80053 2.97526 3.23609 2.66465C3.67164 2.35401 4.197 2.1947 4.73173 2.21106C5.26646 2.22744 5.7811 2.41861 6.19682 2.75529C6.61257 3.09199 6.90651 3.55565 7.03367 4.0753C7.03367 4.0753 9.18027 3.5501 9.18027 3.5501Z" fill="#4F679E" fill-rule="evenodd" transform="scale(1 1)" />
        <path d="M0.875643 0.630013C0.875643 0.630013 4.01136 0.0201132 4.01136 0.0201132C4.59802 -0.0939937 5.16595 0.288974 5.28005 0.875642C5.28005 0.875642 5.28005 0.875642 5.28005 0.875642C5.39416 1.46231 5.01119 2.03023 4.42452 2.14433C4.42452 2.14433 1.28881 2.75423 1.28881 2.75423C0.70214 2.86834 0.13422 2.48537 0.0201132 1.8987C0.0201132 1.8987 0.0201132 1.8987 0.0201132 1.8987C-0.0939944 1.31204 0.288976 0.74412 0.875643 0.630013C0.875643 0.630013 0.875643 0.630013 0.875643 0.630013Z" fill="#4F679E" transform="matrix(1 0 0 1 3.916 2.839)" />
        <path d="M0 1.10377C0 0.494176 0.494192 0 1.10381 0C1.71343 0 2.20762 0.494176 2.20762 1.10377C2.20762 1.71337 1.71343 2.20755 1.10381 2.20755C0.494192 2.20755 0 1.71337 0 1.10377Z" fill="#4F679E" fill-rule="evenodd" transform="matrix(1 0 0 1 7.028 2.81)" />
        <path d="M0 1.10378C0 0.494178 0.494189 0 1.1038 0C1.71342 0 2.20761 0.494178 2.20761 1.10378C2.20761 1.71338 1.71342 2.20755 1.1038 2.20755C0.494189 2.20755 0 1.71338 0 1.10378Z" fill="#4F679E" fill-rule="evenodd" transform="matrix(1 0 0 1 5.913 6.199)" />
      </g>
      <g>
        <path d="M1.3379 0C1.3379 0 5.63504 0 5.63504 0C6.37403 0 6.97294 0.598898 6.97294 1.3379C6.97294 1.3379 6.97294 1.34402 6.97294 1.34402C6.97294 2.08302 6.37403 2.68191 5.63504 2.68191C5.63504 2.68191 1.3379 2.68191 1.3379 2.68191C0.598898 2.68191 0 2.08302 0 1.34402C0 1.34402 0 1.3379 0 1.3379C0 0.598898 0.598898 0 1.3379 0C1.3379 0 1.3379 0 1.3379 0Z" fill="#4CAF50" transform="matrix(1 0 0 1 5.9 5.364)" />
        <path d="M11.0494 1.94763C10.0225 0.892344 8.6648 0.221067 7.20279 0.0457797C5.74075 -0.129508 4.26284 0.20179 3.01556 0.984411C1.76827 1.76703 0.82703 2.95365 0.348849 4.34634C-0.129333 5.73902 -0.115544 7.25355 0.387918 8.63729C0.891376 10.021 1.85406 11.1903 3.11539 11.9501C4.37672 12.7099 5.86043 13.0142 7.31903 12.8123C8.77761 12.6105 10.1229 11.9146 11.1304 10.8408C12.138 9.76695 12.7469 8.38015 12.8556 6.91167C12.8556 6.91167 10.1728 6.7131 10.1728 6.7131C10.1095 7.56784 9.7551 8.37504 9.16865 9.00006C8.58221 9.62509 7.79918 10.0301 6.95019 10.1476C6.10123 10.2651 5.23761 10.088 4.50346 9.64576C3.76929 9.20354 3.20895 8.52295 2.91591 7.71751C2.62286 6.91209 2.61484 6.03055 2.89316 5.21994C3.17149 4.40931 3.71934 3.71864 4.44533 3.2631C5.17132 2.80757 6.03157 2.61474 6.88254 2.71675C7.73353 2.81879 8.52378 3.2095 9.12154 3.82375C9.12154 3.82375 11.0494 1.94763 11.0494 1.94763Z" fill="#4F679E" fill-rule="evenodd" transform="scale(1 1)" />
        <path d="M0 1.35277C0 0.605654 0.605654 0 1.35277 0C2.09988 0 2.70553 0.605654 2.70553 1.35277C2.70553 2.09988 2.09988 2.70553 1.35277 2.70553C0.605654 2.70553 0 2.09988 0 1.35277Z" fill="#FFC107" fill-rule="evenodd" transform="matrix(1 0 0 1 10.168 5.364)" />
        <path d="M0 1.34903C0 0.603982 0.603992 0 1.34905 0C2.09411 0 2.6981 0.603982 2.6981 1.34903C2.6981 2.09408 2.09411 2.69807 1.34905 2.69807C0.603992 2.69807 0 2.09408 0 1.34903Z" fill="#FFC107" fill-rule="evenodd" transform="matrix(1 0 0 1 8.763 1.561)" />
      </g>
    </g>
  </g>
</svg>