<?xml version="1.0" encoding="utf-8"?>
<svg width="812" height="812" viewBox="0 0 812 812" fill="none" xmlns="http://www.w3.org/2000/svg">
  <g>
    <path d="M406 0L406 0C630.258 0 812 181.742 812 406L812 406C812 630.258 630.258 812 406 812L406 812C181.742 812 0 630.258 0 406L0 406C0 181.742 181.742 0 406 0L406 0Z" fill="#FFFFFF" />
    <g transform="translate(117 117)">
      <path d="M60 0C60 0 252.711 0 252.711 0C285.852 0 312.711 26.8584 312.711 60C312.711 60 312.711 60.2745 312.711 60.2745C312.711 93.416 285.852 120.274 252.711 120.274C252.711 120.274 60 120.274 60 120.274C26.8584 120.274 0 93.416 0 60.2745C0 60.2745 0 60 0 60C0 26.8584 26.8584 0 60 0C60 0 60 0 60 0Z" fill="#4CAF50" transform="translate(264.578 240.549)" />
      <path d="M495.528 87.3442C449.474 40.0184 388.585 9.91407 323.019 2.05305C257.452 -5.80796 191.173 9.04957 135.237 44.1473C79.3003 79.2451 37.0893 132.461 15.6446 194.918C-5.80013 257.375 -5.18174 325.296 17.3967 387.352C39.975 449.408 83.1481 501.845 139.714 535.919C196.28 569.992 262.819 583.641 328.232 574.587C393.644 565.534 453.974 534.326 499.159 486.169C544.344 438.013 571.651 375.82 576.526 309.964C576.526 309.964 456.213 301.059 456.213 301.059C453.376 339.391 437.481 375.59 411.181 403.62C384.881 431.651 349.765 449.816 311.691 455.085C273.618 460.355 234.888 452.411 201.964 432.577C169.039 412.745 143.91 382.224 130.768 346.103C117.626 309.983 117.266 270.449 129.748 234.096C142.23 197.741 166.799 166.768 199.357 146.339C231.915 125.909 270.494 117.262 308.657 121.837C346.821 126.413 382.261 143.935 409.068 171.481C409.068 171.481 495.528 87.3442 495.528 87.3442Z" fill="#4F679E" fill-rule="evenodd" />
      <path d="M0 60.6667C0 27.1614 27.1611 0 60.6661 0C94.171 0 121.332 27.1614 121.332 60.6667C121.332 94.172 94.171 121.333 60.6661 121.333C27.1611 121.333 0 94.172 0 60.6667Z" fill="#FFC107" fill-rule="evenodd" transform="translate(456 240.549)" />
      <path d="M0 60.4994C0 27.0865 27.0868 0 60.5 0C93.9132 0 121 27.0865 121 60.4994C121 93.9122 93.9132 120.999 60.5 120.999C27.0868 120.999 0 93.9122 0 60.4994Z" fill="#FFC107" fill-rule="evenodd" transform="translate(393 70.001)" />
    </g>
  </g>
</svg>