<?xml version="1.0" encoding="utf-8"?>
<svg width="87" height="110" viewBox="0 0 87 110" fill="none" xmlns="http://www.w3.org/2000/svg">
  <defs>
    <filter color-interpolation-filters="sRGB" x="-45" y="-23" width="47" height="25" id="filter_1">
      <feFlood flood-opacity="0" result="BackgroundImageFix_1" />
      <feColorMatrix type="matrix" values="0 0 0 0 0 0 0 0 0 0 0 0 0 0 0 0 0 0 1 0" in="SourceAlpha" />
      <feOffset dx="0" dy="0.5" />
      <feGaussianBlur stdDeviation="0.75" />
      <feColorMatrix type="matrix" values="0 0 0 0 0.129 0 0 0 0 0.588 0 0 0 0 0.953 0 0 0 1 0" />
      <feBlend mode="normal" in2="BackgroundImageFix_1" result="Shadow_2" />
      <feBlend mode="normal" in="SourceGraphic" in2="Shadow_2" result="Shape_3" />
    </filter>
  </defs>
  <g>
    <g transform="translate(20 65)">
      <rect width="47" height="25" rx="6" fill="#BBDEFB" fill-rule="evenodd" filter="url(#filter_1)" />
      <path d="M9.82386 8.355Q9.82386 9.96579 9.24219 11.1391Q8.66051 12.3124 7.64631 12.9487Q6.6321 13.5851 5.32955 13.5851Q4.02699 13.5851 3.01278 12.9487Q1.99858 12.3124 1.4169 11.1391Q0.835227 9.96579 0.835227 8.355Q0.835227 6.7442 1.4169 5.57091Q1.99858 4.39761 3.01278 3.76125Q4.02699 3.12489 5.32955 3.12489Q6.6321 3.12489 7.64631 3.76125Q8.66051 4.39761 9.24219 5.57091Q9.82386 6.7442 9.82386 8.355ZM8.63068 8.355Q8.63068 7.03256 8.1907 6.12276Q7.75071 5.21295 7.00249 4.74562Q6.25426 4.2783 5.32955 4.27829Q4.40483 4.2783 3.65661 4.74562Q2.90838 5.21295 2.46839 6.12276Q2.02841 7.03256 2.02841 8.355Q2.02841 9.67744 2.46839 10.5872Q2.90838 11.497 3.65661 11.9644Q4.40483 12.4317 5.32955 12.4317Q6.25426 12.4317 7.00249 11.9644Q7.75071 11.497 8.1907 10.5872Q8.63068 9.67744 8.63068 8.355ZM11.733 13.4459L11.733 3.26409L12.9063 3.26409L12.9063 9.21011L13.0455 9.21011L16.3864 5.80954L17.8381 5.80954L14.6115 9.07091L18.0767 13.4459L16.5852 13.4459L13.7266 9.82659L12.9063 10.5872L12.9063 13.4459L11.733 13.4459Z" fill="#FFFFFF" transform="translate(14 4.29)" />
    </g>
    <g transform="translate(20 20)">
      <rect width="47" height="25" rx="6" fill="#2196F3" fill-rule="evenodd" />
      <path d="M9.82386 8.355Q9.82386 9.96579 9.24219 11.1391Q8.66051 12.3124 7.64631 12.9487Q6.6321 13.5851 5.32955 13.5851Q4.02699 13.5851 3.01278 12.9487Q1.99858 12.3124 1.4169 11.1391Q0.835227 9.96579 0.835227 8.355Q0.835227 6.7442 1.4169 5.57091Q1.99858 4.39761 3.01278 3.76125Q4.02699 3.12489 5.32955 3.12489Q6.6321 3.12489 7.64631 3.76125Q8.66051 4.39761 9.24219 5.57091Q9.82386 6.7442 9.82386 8.355ZM8.63068 8.355Q8.63068 7.03256 8.1907 6.12276Q7.75071 5.21295 7.00249 4.74562Q6.25426 4.2783 5.32955 4.27829Q4.40483 4.2783 3.65661 4.74562Q2.90838 5.21295 2.46839 6.12276Q2.02841 7.03256 2.02841 8.355Q2.02841 9.67744 2.46839 10.5872Q2.90838 11.497 3.65661 11.9644Q4.40483 12.4317 5.32955 12.4317Q6.25426 12.4317 7.00249 11.9644Q7.75071 11.497 8.1907 10.5872Q8.63068 9.67744 8.63068 8.355ZM11.733 13.4459L11.733 3.26409L12.9063 3.26409L12.9063 9.21011L13.0455 9.21011L16.3864 5.80954L17.8381 5.80954L14.6115 9.07091L18.0767 13.4459L16.5852 13.4459L13.7266 9.82659L12.9063 10.5872L12.9063 13.4459L11.733 13.4459Z" fill="#FFFFFF" transform="translate(14 4.29)" />
    </g>
    <path d="M0 21.9614L0 11.9614L1 11.9614L1 21.9614L0 21.9614ZM0 41.9614L0 31.9614L1 31.9614L1 41.9614L0 41.9614ZM0 61.9614L0 51.9614L1 51.9614L1 61.9614L0 61.9614ZM0 81.9614L0 71.9614L1 71.9614L1 81.9614L0 81.9614ZM0 101.961L0 91.9614L1 91.9614L1 101.961L0 101.961ZM14.3076 110L5 110C4.75016 110 4.50461 109.982 4.26461 109.946L4.41037 108.957Q4.70221 109 5 109L14.3076 109L14.3076 110ZM34.3076 110L24.3076 110L24.3076 109L34.3076 109L34.3076 110ZM54.3076 110L44.3076 110L44.3076 109L54.3076 109L54.3076 110ZM74.3076 110L64.3076 110L64.3076 109L74.3076 109L74.3076 110ZM87 100.346L87 105C87 106.929 85.908 108.603 84.3083 109.437L83.846 108.55Q86 107.427 86 105L86 100.346L87 100.346ZM87 80.3462L87 90.3462L86 90.3462L86 80.3462L87 80.3462ZM87 60.3462L87 70.3462L86 70.3462L86 60.3462L87 60.3462ZM87 40.3462L87 50.3462L86 50.3462L86 40.3462L87 40.3462ZM87 20.3462L87 30.3462L86 30.3462L86 20.3462L87 20.3462ZM84.903 0.928337C86.1725 1.83502 87 3.32072 87 5L87 10.3462L86 10.3462L86 5Q86 2.94065 84.3218 1.74211L84.903 0.928337ZM65 0L75 0L75 1L65 1L65 0ZM45 0L55 0L55 1L45 1L45 0ZM25 0L35 0L35 1L25 1L25 0ZM15 0L15 1L5 1Q2.96022 1 1.76026 2.653L0.951005 2.06554C1.85966 0.813825 3.33464 0 5 0L15 0Z" fill="#179DE3" fill-rule="evenodd" />
  </g>
</svg>