<?xml version="1.0" encoding="utf-8"?>
<svg width="24.001" height="24" viewBox="0 0 24.001 24" fill="none" xmlns="http://www.w3.org/2000/svg">
  <g transform="translate(0 0)">
    <g>
      <g>
        <path d="M0.547802 8.2635C0.400755 8.2635 0.269186 8.15998 0.239003 8.01016C-0.0336793 6.65605 -0.0732606 5.28246 0.121439 3.92764C0.309578 2.61813 0.711765 1.35451 1.31672 0.17187C1.39611 0.0167027 1.58612 -0.0447226 1.74113 0.0347791C1.89614 0.114244 1.95746 0.304459 1.87808 0.459626C1.30493 1.5801 0.923897 2.77713 0.745671 4.01751C0.561254 5.30079 0.598809 6.60215 0.857228 7.8854C0.89165 8.05628 0.781125 8.22277 0.610418 8.25723C0.58941 8.26143 0.56844 8.2635 0.547802 8.2635C0.547802 8.2635 0.547802 8.2635 0.547802 8.2635Z" fill="#4CAF50" transform="translate(0 6.372)" />
        <path d="M0.315118 5.43114C0.250618 5.43114 0.185566 5.41141 0.129508 5.37046C-0.0112104 5.26773 -0.0420225 5.07027 0.0606232 4.92947C1.83118 2.50094 4.42927 0.835979 7.37636 0.241351C9.99118 -0.28629 12.6357 0.0549574 15.0243 1.22832C15.1806 1.30512 15.2452 1.49424 15.1684 1.65072C15.0917 1.80719 14.9028 1.87178 14.7464 1.79498C12.4839 0.683522 9.97843 0.360276 7.501 0.860177C4.70893 1.42352 2.24751 3.00084 0.570128 5.30152C0.508393 5.38621 0.412418 5.43114 0.315118 5.43114C0.315118 5.43114 0.315118 5.43114 0.315118 5.43114Z" fill="#4CAF50" transform="translate(2.249 0)" />
        <path d="M5.0529 7.88767C4.90585 7.88767 4.77427 7.7842 4.74409 7.63432C4.16589 4.76325 2.52876 2.25582 0.134201 0.574004C-0.00832176 0.473855 -0.0427818 0.277023 0.057209 0.134378C0.157345 -0.00837612 0.354008 -0.0428295 0.496531 0.0573204C3.02403 1.83257 4.75209 4.47918 5.36238 7.50964C5.39676 7.68051 5.28627 7.84698 5.11555 7.8814C5.09455 7.88564 5.07358 7.88767 5.0529 7.88767C5.0529 7.88767 5.0529 7.88767 5.0529 7.88767Z" fill="#4CAF50" transform="translate(18.39 2.126)" />
      </g>
    </g>
    <g transform="translate(0.239 9.378)">
      <g>
        <path d="M0.546032 3.17854C0.544004 3.17854 0.541977 3.17854 0.539913 3.17847C0.36574 3.17514 0.227249 3.03115 0.23053 2.85683C0.246344 2.0286 0.170849 1.19466 0.00629616 0.378199C-0.0281696 0.207308 0.0823421 0.040807 0.253088 0.00631151C0.424055 -0.0282211 0.590193 0.0824227 0.62462 0.253315C0.798277 1.11471 0.877863 1.9947 0.861275 2.86882C0.857996 3.04111 0.71744 3.17854 0.546032 3.17854C0.546032 3.17854 0.546032 3.17854 0.546032 3.17854Z" fill="#4CAF50" transform="translate(22.899 0)" />
        <path d="M0.427078 1.13006C0.285322 1.13006 0.156504 1.03373 0.121084 0.889811C0.0785507 0.716784 0.0399236 0.544679 0.00630852 0.378253C-0.0281905 0.207366 0.0822727 0.0408316 0.252961 0.00633717C0.423907 -0.0282683 0.590062 0.0823359 0.624561 0.253224C0.656406 0.411014 0.693044 0.574413 0.733512 0.738846C0.775163 0.908147 0.671849 1.07918 0.502709 1.12084C0.477425 1.12707 0.45203 1.13006 0.427078 1.13006C0.427078 1.13006 0.427078 1.13006 0.427078 1.13006Z" fill="#4CAF50" transform="translate(0 4.621)" />
      </g>
    </g>
    <path d="M0.315116 11.9224C0.241208 11.9224 0.167041 11.8965 0.10717 11.8438C-0.0236254 11.7289 -0.0364838 11.5295 0.0784321 11.3985C1.35559 9.94353 2.30258 8.19089 2.81707 6.33011C3.3565 4.3792 3.42573 2.37659 3.02292 0.378035C2.98847 0.207209 3.09893 0.0407743 3.26959 0.00632858C3.44032 -0.028264 3.60656 0.0824471 3.64094 0.253234C4.06357 2.34989 3.99081 4.45108 3.4247 6.49846C2.88498 8.45052 1.89163 10.289 0.552021 11.8151C0.489757 11.8861 0.402658 11.9224 0.315116 11.9224C0.315116 11.9224 0.315116 11.9224 0.315116 11.9224Z" fill="#000000" transform="translate(8.663 11.689)" />
    <path d="M0.315234 4.5631C0.235875 4.5631 0.156441 4.53326 0.0951347 4.47341C-0.0295053 4.35172 -0.0320106 4.15199 0.0896082 4.0272C1.16502 2.92369 1.9941 1.63631 2.55374 0.200867C2.61704 0.0385704 2.79993 -0.0416012 2.962 0.0216045C3.12418 0.0849972 3.20439 0.267944 3.14105 0.430277C2.55053 1.94497 1.6757 3.30341 0.540896 4.46784C0.479149 4.53127 0.39721 4.5631 0.315234 4.5631C0.315234 4.5631 0.315234 4.5631 0.315234 4.5631Z" fill="#720E9E" transform="translate(7.153 18.53)" />
    <path d="M0.402562 13.7071C0.334661 13.7071 0.266284 13.6853 0.208661 13.6402C0.0714607 13.5329 0.0471821 13.3345 0.154356 13.1972C2.72934 9.89849 3.73259 5.65633 2.90681 1.5584C2.90681 1.5584 2.88559 1.4531 2.88559 1.4531C2.80877 1.19556 2.64604 0.974967 2.41964 0.824379C2.1634 0.653949 1.85625 0.593684 1.55488 0.654576C0.984414 0.769647 0.597201 1.29082 0.63283 1.85673C0.63283 1.85673 0.663851 2.01079 0.663851 2.01079C0.991819 3.64007 0.983236 5.28371 0.638245 6.89603C0.601732 7.06642 0.434138 7.17489 0.263964 7.13849C0.0937157 7.10201 -0.0147133 6.93424 0.0217247 6.76384C0.327036 5.33696 0.354154 3.88379 0.102888 2.43979C0.102888 2.43979 0.0964031 2.44097 0.0964031 2.44097C0.0964031 2.44097 0.0353174 2.13736 0.0353174 2.13736C-0.158804 1.17295 0.466928 0.230175 1.43017 0.0358448C1.89659 -0.0584984 2.37193 0.0348492 2.7685 0.298664C3.16503 0.562406 3.43531 0.964895 3.52948 1.432C3.52948 1.432 3.585 1.70729 3.585 1.70729C3.585 1.70729 3.57778 1.70965 3.57778 1.70965C4.3413 5.9024 3.28186 10.2157 0.651102 13.5858C0.588984 13.6654 0.496216 13.7071 0.402562 13.7071C0.402562 13.7071 0.402562 13.7071 0.402562 13.7071Z" fill="#000000" transform="translate(10.209 10.221)" />
    <path d="M0.315302 9.47663C0.231078 9.47663 0.147112 9.44307 0.0850306 9.37666C-0.0338998 9.24943 -0.0272684 9.04975 0.0998793 8.93067C2.44415 6.7356 3.58744 3.5308 3.15814 0.357909C3.13478 0.185217 3.2557 0.0262403 3.42824 0.00289822C3.60089 -0.0205193 3.75957 0.100548 3.78297 0.27324C4.23961 3.64833 3.02374 7.05705 0.530616 9.39152C0.469823 9.44845 0.392489 9.47663 0.315302 9.47663C0.315302 9.47663 0.315302 9.47663 0.315302 9.47663Z" fill="#720E9E" transform="translate(5.774 12.924)" />
    <path d="M6.36352 6.13087C6.18985 6.13087 6.04881 5.99014 6.04834 5.81615C6.04565 4.78764 5.9402 3.7491 5.73502 2.72937C5.73502 2.72937 5.71045 2.60731 5.71045 2.60731C5.5524 1.97488 5.17 1.4318 4.62392 1.06859C4.04335 0.682394 3.34732 0.545757 2.66407 0.683721C1.63848 0.890758 0.837707 1.68682 0.623908 2.71182C0.58832 2.88242 0.421309 2.99195 0.250876 2.95622C0.0804434 2.92063 -0.0288696 2.75342 0.00672054 2.58286C0.272099 1.31036 1.26626 0.322054 2.53936 0.0650835C3.3877 -0.106293 4.25199 0.0634232 4.97286 0.542955C5.69372 1.02245 6.18487 1.75431 6.35579 2.60362C6.35579 2.60362 6.40666 2.8565 6.40666 2.8565C6.40666 2.8565 6.40206 2.85845 6.40206 2.85845C6.58318 3.83684 6.67621 4.82998 6.67878 5.81445C6.67926 5.9887 6.53849 6.13035 6.36441 6.13083C6.36415 6.13087 6.36385 6.13087 6.36352 6.13087C6.36352 6.13087 6.36352 6.13087 6.36352 6.13087Z" fill="#720E9E" transform="translate(8.812 8.76)" />
    <path d="M0.314988 7.88789C0.253678 7.88789 0.191705 7.87 0.137285 7.83272C-0.00644684 7.73437 -0.0432167 7.538 0.0551224 7.39414C1.50357 5.27504 2.42181 2.8149 2.7106 0.279791C2.73031 0.106691 2.8868 -0.0177326 3.05956 0.00207138C3.23251 0.0217628 3.35679 0.17816 3.33704 0.351295C3.03672 2.98822 2.08181 5.54679 0.575483 7.75041C0.514394 7.8398 0.415538 7.88789 0.314988 7.88789C0.314988 7.88789 0.314988 7.88789 0.314988 7.88789Z" fill="#720E9E" transform="translate(12.05 16.112)" />
    <path d="M0.315403 14.2578C0.227091 14.2578 0.139296 14.2209 0.0769582 14.1488C-0.0370326 14.0171 -0.0227375 13.8178 0.108863 13.7037C1.22147 12.7392 2.06804 11.4947 2.55701 10.1048C3.02664 8.76987 3.15109 7.33402 2.92098 5.93319C2.92098 5.93319 2.91843 5.93364 2.91843 5.93364C2.91843 5.93364 2.8579 5.63335 2.8579 5.63335C2.60973 4.40183 2.85551 3.14737 3.5501 2.10109C4.24458 1.05484 5.30469 0.341928 6.53504 0.0936327C6.96293 0.0072298 7.39885 -0.0195436 7.83083 0.0140147C8.00443 0.0275488 8.13415 0.179336 8.12067 0.353065C8.10715 0.526794 7.95583 0.656602 7.78198 0.643179C7.4081 0.614009 7.03057 0.637316 6.65968 0.712214C5.59438 0.927208 4.67656 1.54446 4.07525 2.45032C3.5221 3.2836 3.29773 4.2694 3.43254 5.25192C3.43254 5.25192 3.48397 5.50715 3.48397 5.50715C3.8077 7.11393 3.69279 8.77625 3.15169 10.3143C2.62639 11.8075 1.71693 13.1445 0.521611 14.1807C0.461998 14.2324 0.388535 14.2578 0.315403 14.2578C0.315403 14.2578 0.315403 14.2578 0.315403 14.2578Z" fill="#FFC107" transform="translate(4.528 7.301)" />
    <path d="M0.416395 15.9338C0.362197 15.9338 0.307301 15.9198 0.257228 15.8904C0.107013 15.8022 0.0567207 15.6089 0.144779 15.4586C2.28709 11.8034 3.00567 7.50142 2.16827 3.3452C2.16827 3.3452 2.14071 3.20849 2.14071 3.20849C1.87731 2.09823 1.16209 1.14969 0.161764 0.591218C0.00967121 0.506322 -0.0448217 0.314106 0.0399942 0.161903C0.124774 0.00973845 0.316771 -0.0448799 0.468863 0.0400171C1.67091 0.711114 2.51641 1.87002 2.78858 3.21955C2.78858 3.21955 2.84263 3.48759 2.84263 3.48759C2.84263 3.48759 2.83836 3.4891 2.83836 3.4891C3.62299 7.71406 2.86345 12.0673 0.688637 15.7779C0.629946 15.8781 0.524609 15.9338 0.416395 15.9338C0.416395 15.9338 0.416395 15.9338 0.416395 15.9338Z" fill="#720E9E" transform="translate(13.81 7.856)" />
    <path d="M0.315445 3.6534C0.224217 3.6534 0.133728 3.61398 0.0713871 3.53783C-0.0389619 3.40301 -0.019177 3.20421 0.11549 3.0938C1.04909 2.32839 1.77379 1.32823 2.2112 0.201359C2.27425 0.0389175 2.45692 -0.0416183 2.61922 0.021513C2.78152 0.0846443 2.86195 0.267477 2.79891 0.429882C2.32222 1.65783 1.53246 2.74779 0.514995 3.58193C0.456449 3.63005 0.385708 3.6534 0.315445 3.6534C0.315445 3.6534 0.315445 3.6534 0.315445 3.6534Z" fill="#FFC107" transform="translate(3.42 16.928)" />
    <path d="M12.013 12.1611C11.996 12.1611 11.9787 12.1598 11.9614 12.1569C11.7896 12.1286 11.6733 11.9663 11.7015 11.7943C12.0679 9.56665 12.0257 7.3047 11.576 5.07136C11.576 5.07136 11.5589 4.9864 11.5589 4.9864C11.2521 3.57401 10.4232 2.35863 9.21754 1.55696C7.98804 0.739435 6.51395 0.450026 5.06706 0.742164C3.61965 1.03416 2.37265 1.87266 1.55572 3.10328C0.791557 4.25432 0.489231 5.61957 0.692256 6.97657C0.692256 6.97657 0.748484 7.25613 0.748484 7.25613C0.903166 8.02524 0.939719 8.80585 0.856998 9.57628C0.838428 9.74953 0.682898 9.87487 0.509866 9.85629C0.336724 9.8377 0.211483 9.68211 0.23009 9.50887C0.294793 8.90582 0.279833 8.29569 0.185653 7.6908C0.185653 7.6908 0.12353 7.38247 0.12353 7.38247C-0.201753 5.76881 0.120398 4.12506 1.03055 2.75405C1.94073 1.38304 3.33 0.448843 4.94248 0.123551C6.55448 -0.201849 8.1967 0.120529 9.56655 1.03135C10.9364 1.94225 11.8698 3.3325 12.1947 4.94605C12.1947 4.94605 12.2243 5.09316 12.2243 5.09316C12.2243 5.09316 12.2233 5.09437 12.2233 5.09437C12.6606 7.35489 12.6945 9.64258 12.3238 11.8968C12.2983 12.0514 12.1646 12.1611 12.013 12.1611C12.013 12.1611 12.013 12.1611 12.013 12.1611Z" fill="#FFC107" transform="translate(5.834 5.841)" />
    <path d="M0.315101 4.03852C0.26875 4.03852 0.221702 4.02823 0.177228 4.00654C0.0206785 3.93021 -0.0443497 3.74137 0.0319538 3.58472C0.554734 2.51088 0.975602 1.3835 1.28295 0.233953C1.32798 0.065649 1.5007 -0.0340633 1.66901 0.010704C1.8372 0.0557671 1.93701 0.228754 1.89206 0.397131C1.57428 1.58558 1.13915 2.75105 0.598687 3.86114C0.544124 3.97325 0.431895 4.03852 0.315101 4.03852C0.315101 4.03852 0.315101 4.03852 0.315101 4.03852Z" fill="#FFC107" transform="translate(15.865 19.189)" />
    <path d="M0.630013 14.8227C0.592583 14.8227 0.554522 14.816 0.517462 14.8018C0.354836 14.7395 0.273453 14.5571 0.335644 14.3943C1.68464 10.8645 2.00874 7.03483 1.27436 3.31374C1.27436 3.31374 1.258 3.2339 1.258 3.2339C1.05702 2.23664 0.654074 1.31723 0.0604286 0.501331C-0.0420303 0.360463 -0.0110817 0.163097 0.129658 0.0605059C0.270432 -0.0421219 0.467579 -0.011035 0.570074 0.129797C1.19161 0.984012 1.62138 1.94196 1.84863 2.97879C1.84863 2.97879 1.84991 2.97964 1.84991 2.97964C1.84991 2.97964 1.87651 3.10945 1.87651 3.10945C2.65504 6.97277 2.32585 10.953 0.924536 14.6198C0.876492 14.7455 0.756901 14.8227 0.630013 14.8227C0.630013 14.8227 0.630013 14.8227 0.630013 14.8227Z" fill="#FFC107" transform="translate(17.58 7.389)" />
    <path d="M7.99084 2.2885C7.92058 2.28854 7.84996 2.26512 7.79134 2.21711C6.16193 0.881632 4.04458 0.354301 1.98193 0.770376C1.4511 0.877391 0.934564 1.04518 0.446692 1.26902C0.288413 1.34159 0.101327 1.27208 0.0287466 1.11366C-0.0437965 0.955273 0.0256882 0.767979 0.183966 0.695333C0.715976 0.451249 1.27901 0.268342 1.8574 0.15174C4.10592 -0.302022 6.41441 0.272916 8.19075 1.72886C8.32545 1.83927 8.34523 2.03807 8.23489 2.17289C8.17262 2.24908 8.08206 2.2885 7.99084 2.2885C7.99084 2.2885 7.99084 2.2885 7.99084 2.2885Z" fill="#4F679E" transform="translate(8.629 4.381)" />
    <path d="M0.315463 13.4734C0.223208 13.4734 0.131801 13.433 0.069499 13.3555C-0.039556 13.2196 -0.0178931 13.021 0.1178 12.9118C1.67265 11.6615 2.42775 9.70113 2.1242 7.74605C2.1242 7.74605 2.0745 7.49932 2.0745 7.49932C1.5129 4.71147 2.53526 1.86497 4.74256 0.0706072C4.87774 -0.0392561 5.07628 -0.018641 5.186 0.116632C5.2958 0.251943 5.2752 0.450649 5.14002 0.560513C3.18837 2.14699 2.24659 4.62996 2.64236 7.09716C2.64236 7.09716 2.69803 7.37335 2.69803 7.37335C3.15507 9.64154 2.3177 11.9523 0.512685 13.4038C0.454508 13.4506 0.384764 13.4734 0.315463 13.4734C0.315463 13.4734 0.315463 13.4734 0.315463 13.4734Z" fill="#4F679E" transform="translate(2.452 6.013)" />
    <path d="M0.315448 6.23768C0.226021 6.23768 0.137146 6.19977 0.0747639 6.12611C-0.0378033 5.99319 -0.0214062 5.79406 0.111463 5.68135C1.19628 4.76119 1.72101 3.34643 1.50723 1.95071C1.50723 1.95071 1.46946 1.76364 1.46946 1.76364C1.37454 1.29329 1.31629 0.810466 1.29624 0.328677C1.28902 0.154557 1.42417 0.00750923 1.59813 0.000243187C1.77208 -0.00650597 1.91899 0.128297 1.92625 0.302417C1.94103 0.657774 1.97813 1.01361 2.03679 1.36381C2.03679 1.36381 2.09195 1.6378 2.09195 1.6378C2.43054 3.31877 1.82783 5.05266 0.519102 6.16292C0.45989 6.21308 0.387447 6.23768 0.315448 6.23768C0.315448 6.23768 0.315448 6.23768 0.315448 6.23768Z" fill="#4F679E" transform="translate(1.629 12.038)" />
    <path d="M17.7304 8.80207C17.5769 8.80207 17.4423 8.68956 17.419 8.53294C17.3708 8.20842 17.3152 7.88364 17.2534 7.56539C17.2534 7.56539 17.2218 7.41394 17.2218 7.41394C16.7761 5.2012 15.4963 3.29472 13.6181 2.04569C11.7399 0.796654 9.48803 0.354532 7.27719 0.800674C5.57663 1.14385 4.04628 1.98576 2.85146 3.23534C1.68339 4.45701 0.913806 5.97967 0.625916 7.63874C0.596146 7.81044 0.433115 7.92554 0.261353 7.89559C0.0898123 7.86579 -0.0251007 7.70243 0.00470495 7.53073C0.314114 5.74771 1.14098 4.11151 2.39593 2.79898C3.68024 1.45576 5.32507 0.550793 7.15255 0.181983C9.52845 -0.29742 11.9485 0.177743 13.967 1.52004C15.9208 2.81933 17.2721 4.78054 17.791 7.06154C17.791 7.06154 17.794 7.06183 17.794 7.06183C17.794 7.06183 17.8414 7.28929 17.8414 7.28929C17.9174 7.66614 17.9851 8.05328 18.0426 8.44001C18.0682 8.61237 17.9494 8.7729 17.7772 8.79856C17.7615 8.80093 17.7459 8.80207 17.7304 8.80207C17.7304 8.80207 17.7304 8.80207 17.7304 8.80207Z" fill="#4F679E" transform="translate(3.046 2.921)" />
    <path d="M0.315502 7.62013C0.28857 7.62013 0.261272 7.61663 0.234083 7.60936C0.0658646 7.56444 -0.0341244 7.39156 0.0107136 7.22317C0.609648 4.97555 0.83906 2.65822 0.692724 0.335473C0.681746 0.161554 0.813747 0.0116434 0.987494 0.000691414C1.16131 -0.0107775 1.31096 0.121799 1.32194 0.295718C1.47266 2.68669 1.23643 5.07213 0.61985 7.38577C0.582273 7.5269 0.454838 7.62013 0.315502 7.62013C0.315502 7.62013 0.315502 7.62013 0.315502 7.62013Z" fill="#4F679E" transform="translate(19.962 12.932)" />
    <path d="M0.315216 15.4533C0.238501 15.4533 0.16164 15.4255 0.100918 15.3692C-0.0267536 15.2507 -0.0343077 15.0511 0.0840792 14.9232C0.630065 14.3339 0.875422 13.5232 0.751325 12.735C0.751325 12.735 0.728297 12.6272 0.728297 12.6272C0.17218 9.86693 0.723285 7.05522 2.28014 4.70994C3.83693 2.36473 6.21306 0.766667 8.9708 0.210154C10.1291 -0.0236623 11.3043 -0.0625705 12.4637 0.094426C12.6362 0.117771 12.7572 0.276722 12.7339 0.449429C12.7105 0.6221 12.5515 0.743286 12.3791 0.719793C11.2895 0.572275 10.1847 0.608896 9.09542 0.828809C6.50278 1.35202 4.26891 2.85438 2.80535 5.05919C1.37484 7.2141 0.847569 9.78811 1.31253 12.3262C1.31253 12.3262 1.35 12.5018 1.35 12.5018C1.55538 13.5218 1.25501 14.5875 0.546463 15.3524C0.484376 15.4194 0.399924 15.4533 0.315216 15.4533C0.315216 15.4533 0.315216 15.4533 0.315216 15.4533Z" fill="#4CAF50" transform="translate(0.94 1.462)" />
    <path d="M7.50901 15.8651C7.49596 15.8651 7.48289 15.8643 7.46966 15.8626C7.2969 15.8411 7.17429 15.6834 7.19577 15.5105C7.4939 13.1141 7.41189 10.6896 6.95225 8.30097C6.95225 8.30097 6.90955 8.09863 6.90955 8.09863C6.20111 4.58037 3.63742 1.71322 0.219099 0.616046C0.0532742 0.562797 -0.038022 0.385165 0.0151415 0.219223C0.0683403 0.0532811 0.245957 -0.0379876 0.411598 0.0151139C3.95124 1.15123 6.62936 4.0721 7.4638 7.67899C7.4638 7.67899 7.46804 7.67832 7.46804 7.67832C7.46804 7.67832 7.5303 7.97348 7.5303 7.97348C8.03846 10.4945 8.13639 13.0565 7.82139 15.5885C7.80157 15.7482 7.66573 15.8651 7.50901 15.8651C7.50901 15.8651 7.50901 15.8651 7.50901 15.8651Z" fill="#4CAF50" transform="translate(14.787 1.947)" />
  </g>
</svg>