<?xml version="1.0" encoding="utf-8"?>
<svg width="3137.001" height="663.147" viewBox="0 0 3137.001 663.147" fill="none" xmlns="http://www.w3.org/2000/svg">
  <g>
    <g transform="translate(2333 159)">
      <path d="M315.865 184.583C315.865 184.583 412.52 162.671 412.52 162.671C402.279 117.496 377.31 77.0078 341.541 47.5759C305.772 18.144 261.233 1.43892 214.932 0.0887548C168.63 -1.26141 123.193 12.8199 85.7701 40.1175C48.3468 67.4151 21.0608 106.38 8.20474 150.881C-4.65133 195.383 -2.34779 242.895 14.7529 285.944C31.8537 328.993 62.7811 365.136 102.67 388.685C142.558 412.234 189.144 421.854 235.097 416.031C281.051 410.208 323.765 389.273 356.519 356.519C356.519 356.519 286.439 286.439 286.439 286.439C269.229 303.65 246.785 314.65 222.639 317.71C198.493 320.769 174.014 315.714 153.055 303.341C132.096 290.967 115.845 271.976 106.86 249.356C97.8744 226.736 96.664 201.771 103.419 178.388C110.174 155.005 124.512 134.531 144.175 120.187C163.839 105.844 187.714 98.4451 212.043 99.1545C236.372 99.864 259.774 108.642 278.569 124.106C297.364 139.571 310.484 160.846 315.865 184.583Z" fill="#4F679E" fill-rule="evenodd" transform="matrix(1 0 0 1 0 0)" />
      <path d="M0 54.2306C0 24.2798 24.2801 0 54.2312 0C84.1822 0 108.462 24.2798 108.462 54.2306C108.462 84.1813 84.1822 108.461 54.2312 108.461C24.2801 108.461 0 84.1813 0 54.2306Z" fill="#4F679E" fill-rule="evenodd" transform="matrix(1 0 0 1 309.539 309.539)" />
      <path d="M0 49.5C0 22.1619 22.1621 0 49.5005 0C76.8389 0 99.001 22.1619 99.001 49.5C99.001 76.8381 76.8389 99 49.5005 99C22.1621 99 0 76.8381 0 49.5Z" fill="#4F679E" fill-rule="evenodd" transform="matrix(1 0 0 1 315 126)" />
      <path d="M0 49.5C0 22.1619 22.1621 0 49.5005 0C76.8389 0 99.001 22.1619 99.001 49.5C99.001 76.8381 76.8389 99 49.5005 99C22.1621 99 0 76.8381 0 49.5Z" fill="#4F679E" fill-rule="evenodd" transform="matrix(1 0 0 1 274 270)" />
      <path d="M0 49.5C0 22.1619 22.1621 0 49.5005 0C76.8389 0 99.001 22.1619 99.001 49.5C99.001 76.8381 76.8389 99 49.5005 99C22.1621 99 0 76.8381 0 49.5Z" fill="#4F679E" fill-rule="evenodd" transform="matrix(1 0 0 1 163.262 159.461)" />
      <path d="M48.5049 0L111.243 0C138.035 0 159.748 21.7127 159.748 48.5049L159.748 48.5049C159.748 75.2971 138.035 97.0099 111.243 97.0098L48.5049 97.0099C21.7128 97.0099 0 75.2971 0 48.5049L0 48.5049C0 21.7127 21.7128 0 48.5049 0L48.5049 0Z" fill="#4F679E" transform="matrix(0.731 0.682 -0.682 0.731 321.426 250.429)" />
    </g>
    <g transform="translate(2796 22.461)">
      <path d="M212.92 138.557C212.92 138.557 306.851 107.762 306.851 107.762C297.787 80.3231 281.288 55.9127 259.176 37.225C237.064 18.5374 210.199 6.2992 181.546 1.86121C152.894 -2.57677 123.567 0.958003 96.8034 12.0755C70.0398 23.1929 46.88 41.4606 29.8803 64.8624C12.8806 88.2643 2.70192 115.89 0.46779 144.691C-1.76634 173.492 4.03095 202.347 17.2198 228.073C30.4086 253.799 50.4761 275.394 75.2074 290.476C99.9387 305.558 128.372 313.539 157.369 313.539C157.369 313.539 157.369 215.028 157.369 215.028C146.593 215.028 136.027 212.062 126.836 206.457C117.646 200.853 110.188 192.827 105.287 183.267C100.386 173.707 98.2312 162.984 99.0615 152.281C99.8917 141.578 103.674 131.312 109.992 122.615C116.309 113.918 124.916 107.13 134.862 102.998C144.808 98.8668 155.706 97.5532 166.354 99.2024C177.002 100.852 186.985 105.4 195.203 112.344C203.42 119.289 209.551 128.36 212.92 138.557Z" fill="#4F679E" fill-rule="evenodd" transform="matrix(1 0 0 1 0 0)" />
      <path d="M104.834 199.709C104.834 199.709 14.717 239.795 14.717 239.795C27.1897 267.834 46.9992 291.988 72.0556 309.707C97.112 327.426 126.486 338.054 157.08 340.469C187.673 342.885 218.352 336.999 245.878 323.431C273.405 309.864 296.76 289.119 313.478 263.384C330.197 237.649 339.66 207.879 340.869 177.215C342.077 146.55 334.987 116.128 320.346 89.1567C305.705 62.1859 284.056 39.6667 257.682 23.9748C231.309 8.28287 201.189 0 170.5 0C170.5 0 170.5 98.6299 170.5 98.6299C183.436 98.6299 196.133 102.121 207.25 108.736C218.367 115.35 227.492 124.843 233.664 136.212C239.835 147.58 242.824 160.404 242.314 173.33C241.805 186.256 237.816 198.805 230.769 209.652C223.722 220.5 213.877 229.245 202.274 234.964C190.671 240.682 177.739 243.164 164.843 242.146C151.948 241.127 139.566 236.647 129.004 229.178C118.442 221.709 110.092 211.528 104.834 199.709Z" fill="#4F679E" fill-rule="evenodd" transform="matrix(1 0 0 1 0 215)" />
      <path d="M0 49.5C0 22.1619 22.1621 0 49.5005 0C76.8389 0 99.001 22.1619 99.001 49.5C99.001 76.8381 76.8389 99 49.5005 99C22.1621 99 0 76.8381 0 49.5Z" fill="#4F679E" fill-rule="evenodd" transform="matrix(1 0 0 1 10 385)" />
      <path d="M0 49.5C0 22.1619 22.1621 0 49.5005 0C76.8389 0 99.001 22.1619 99.001 49.5C99.001 76.8381 76.8389 99 49.5005 99C22.1621 99 0 76.8381 0 49.5Z" fill="#4F679E" fill-rule="evenodd" transform="matrix(1 0 0 1 211 76)" />
      <path d="M40 0L56 0C78.0944 0 96 17.9056 96 40L96 59C96 81.0944 78.0944 99 56 99L40 99C17.9056 99 0 81.0944 0 59L0 40C0 17.9056 17.9056 0 40 0L40 0Z" fill="#4F679E" transform="translate(115 214.539)" />
    </g>
    <g transform="translate(1732 158)">
      <path d="M108.113 160.844C108.113 160.844 0 160.844 0 160.844C0 181.967 4.16034 202.882 12.2435 222.397C20.3268 241.911 32.1744 259.642 47.1103 274.578C62.046 289.514 79.7773 301.362 99.2918 309.445C118.806 317.528 139.722 321.688 160.844 321.688C181.967 321.688 202.882 317.528 222.397 309.445C241.911 301.362 259.643 289.514 274.578 274.578C289.514 259.642 301.362 241.911 309.445 222.397C317.528 202.882 321.689 181.967 321.689 160.844C321.689 160.844 213.576 160.844 213.576 160.844C213.576 167.769 212.212 174.626 209.562 181.024C206.912 187.421 203.028 193.234 198.131 198.131C193.234 203.027 187.421 206.912 181.024 209.562C174.626 212.212 167.769 213.576 160.844 213.576C153.92 213.576 147.063 212.212 140.665 209.562C134.267 206.912 128.454 203.027 123.558 198.131C118.661 193.234 114.777 187.421 112.127 181.024C109.477 174.626 108.113 167.769 108.113 160.844Z" fill="#4F679E" fill-rule="evenodd" transform="matrix(-1 -0 -0 -1 322 322)" />
      <path d="M108.113 160.844C108.113 160.844 0 160.844 0 160.844C0 181.967 4.16034 202.882 12.2435 222.397C20.3267 241.911 32.1744 259.642 47.1103 274.578C62.046 289.514 79.7773 301.362 99.2918 309.445C118.806 317.528 139.722 321.688 160.844 321.688C181.967 321.688 202.882 317.528 222.397 309.445C241.911 301.362 259.643 289.514 274.578 274.578C289.514 259.642 301.362 241.911 309.445 222.397C317.528 202.882 321.689 181.967 321.689 160.844C321.689 160.844 213.576 160.844 213.576 160.844C213.576 167.769 212.212 174.626 209.562 181.024C206.912 187.421 203.028 193.234 198.131 198.131C193.234 203.027 187.421 206.912 181.024 209.562C174.626 212.212 167.769 213.576 160.844 213.576C153.92 213.576 147.063 212.212 140.665 209.562C134.267 206.912 128.454 203.027 123.558 198.131C118.661 193.234 114.777 187.421 112.127 181.024C109.477 174.626 108.113 167.769 108.113 160.844Z" fill="#4F679E" fill-rule="evenodd" transform="matrix(-1 -0 -0 -1 536 322)" />
      <path d="M54.0001 0L364 -1.52588e-05C393.827 -1.52588e-05 418 24.1726 418 54L418 54C418 83.8275 393.827 108 364 108L54.0001 108C24.1726 108 0 83.8275 0 54L0 54C0 24.1726 24.1726 0 54.0001 0L54.0001 0Z" fill="#4F679E" transform="matrix(-0 -1 1 -0 0 418)" />
      <path d="M54.0001 0L256 -1.52588e-05C285.827 -1.52588e-05 310 24.1726 310 54L310 54C310 83.8275 285.827 108 256 108L54.0001 108C24.1726 108 0 83.8275 0 54.0001L0 54.0001C0 24.1726 24.1726 0 54.0001 0L54.0001 0Z" fill="#4F679E" transform="matrix(-0 -1 1 -0 214 418)" />
      <path d="M54.0001 0L256 0C285.827 0 310 24.1726 310 54L310 54C310 83.8275 285.827 108 256 108L54.0001 108C24.1726 108 0 83.8275 0 54.0001L0 54.0001C0 24.1726 24.1726 0 54.0001 0L54.0001 0Z" fill="#4F679E" transform="matrix(-0 -1 1 -0 428 418)" />
    </g>
    <g transform="translate(1129 165)">
      <path d="M108.113 160.844C108.113 160.844 0 160.844 0 160.844C0 181.967 4.16034 202.882 12.2435 222.397C20.3268 241.911 32.1744 259.642 47.1103 274.578C62.046 289.514 79.7773 301.362 99.2918 309.445C118.806 317.528 139.722 321.688 160.844 321.688C181.967 321.688 202.882 317.528 222.397 309.445C241.911 301.362 259.643 289.514 274.578 274.578C289.514 259.642 301.362 241.911 309.445 222.397C317.528 202.882 321.689 181.967 321.689 160.844C321.689 160.844 213.576 160.844 213.576 160.844C213.576 167.769 212.212 174.626 209.562 181.024C206.912 187.421 203.028 193.234 198.131 198.131C193.234 203.027 187.421 206.912 181.024 209.562C174.626 212.212 167.769 213.576 160.844 213.576C153.92 213.576 147.063 212.212 140.665 209.562C134.267 206.912 128.454 203.027 123.558 198.131C118.661 193.234 114.777 187.421 112.127 181.024C109.477 174.626 108.113 167.769 108.113 160.844Z" fill="#4F679E" fill-rule="evenodd" transform="matrix(-1 -0 -0 -1 322 322)" />
      <path d="M108.113 160.844C108.113 160.844 0 160.844 0 160.844C0 181.967 4.16034 202.882 12.2435 222.397C20.3267 241.911 32.1744 259.642 47.1103 274.578C62.046 289.514 79.7773 301.362 99.2918 309.445C118.806 317.528 139.722 321.688 160.844 321.688C181.967 321.688 202.882 317.528 222.397 309.445C241.911 301.362 259.643 289.514 274.578 274.578C289.514 259.642 301.362 241.911 309.445 222.397C317.528 202.882 321.689 181.967 321.689 160.844C321.689 160.844 213.576 160.844 213.576 160.844C213.576 167.769 212.212 174.626 209.562 181.024C206.912 187.421 203.028 193.234 198.131 198.131C193.234 203.027 187.421 206.912 181.024 209.562C174.626 212.212 167.769 213.576 160.844 213.576C153.92 213.576 147.063 212.212 140.665 209.562C134.267 206.912 128.454 203.027 123.558 198.131C118.661 193.234 114.777 187.421 112.127 181.024C109.477 174.626 108.113 167.769 108.113 160.844Z" fill="#4F679E" fill-rule="evenodd" transform="matrix(-1 -0 -0 -1 536 322)" />
      <path d="M54.0001 0L364 -1.52588e-05C393.827 -1.52588e-05 418 24.1726 418 54L418 54C418 83.8275 393.827 108 364 108L54.0001 108C24.1726 108 0 83.8275 0 54L0 54C0 24.1726 24.1726 0 54.0001 0L54.0001 0Z" fill="#4F679E" transform="matrix(-0 -1 1 -0 0 418)" />
      <path d="M54.0001 0L256 -1.52588e-05C285.827 -1.52588e-05 310 24.1726 310 54L310 54C310 83.8275 285.827 108 256 108L54.0001 108C24.1726 108 0 83.8275 0 54.0001L0 54.0001C0 24.1726 24.1726 0 54.0001 0L54.0001 0Z" fill="#4F679E" transform="matrix(-0 -1 1 -0 214 418)" />
      <path d="M54.0001 0L256 0C285.827 0 310 24.1726 310 54L310 54C310 83.8275 285.827 108 256 108L54.0001 108C24.1726 108 0 83.8275 0 54.0001L0 54.0001C0 24.1726 24.1726 0 54.0001 0L54.0001 0Z" fill="#4F679E" transform="matrix(-0 -1 1 -0 428 418)" />
    </g>
    <g transform="translate(558.534 72.537)">
      <path d="M267.359 116.01C267.359 116.01 320.206 32.1682 320.206 32.1682C281.579 7.82076 236.037 -3.19666 190.552 0.802628C145.067 4.80191 102.146 23.5975 68.3602 54.312C34.5744 85.0264 11.7854 125.967 3.48213 170.866C-4.82109 215.765 1.81903 262.148 22.3859 302.914C42.9528 343.68 76.313 376.582 117.359 396.584C158.406 416.585 204.876 422.584 249.656 413.661C294.436 404.738 335.058 381.386 365.302 347.179C395.547 312.972 413.748 269.795 417.118 224.259C417.118 224.259 318.281 216.944 318.281 216.944C316.51 240.87 306.946 263.557 291.054 281.531C275.162 299.505 253.818 311.776 230.288 316.464C206.759 321.153 182.341 318.001 160.774 307.491C139.206 296.981 121.677 279.693 110.87 258.272C100.064 236.852 96.5747 212.48 100.938 188.889C105.3 165.297 117.275 143.785 135.027 127.646C152.78 111.507 175.333 101.631 199.232 99.5296C223.132 97.4282 247.062 103.217 267.359 116.01Z" fill="#4F679E" fill-rule="evenodd" transform="matrix(0.719 0.695 -0.695 0.719 290.15 0)" />
      <path d="M48.5049 0L191.708 0C218.5 0 240.213 21.7127 240.213 48.5049L240.213 48.5049C240.213 75.2971 218.5 97.0098 191.708 97.0098L48.5049 97.0098C21.7128 97.0098 0 75.2971 0 48.5049L0 48.5049C0 21.7127 21.7128 0 48.5049 0L48.5049 0Z" fill="#4F679E" transform="matrix(0.982 -0.191 0.191 0.982 253.593 251.284)" />
      <path d="M0 49.5C0 22.1619 22.1621 0 49.5005 0C76.8389 0 99.001 22.1619 99.001 49.5C99.001 76.8381 76.8389 99 49.5005 99C22.1621 99 0 76.8381 0 49.5Z" fill="#4F679E" fill-rule="evenodd" transform="matrix(1 0 0 1 401.466 212.463)" />
      <path d="M0 49.5C0 22.1619 22.1621 0 49.5005 0C76.8389 0 99.001 22.1619 99.001 49.5C99.001 76.8381 76.8389 99 49.5005 99C22.1621 99 0 76.8381 0 49.5Z" fill="#4F679E" fill-rule="evenodd" transform="matrix(1 0 0 1 351.466 364.463)" />
    </g>
    <g>
      <path d="M60 0L252.711 0C285.852 0 312.711 26.8584 312.711 60L312.711 60.2745C312.711 93.416 285.852 120.274 252.711 120.274L60 120.274C26.8584 120.274 0 93.416 0 60.2745L0 60C0 26.8584 26.8584 0 60 0L60 0Z" fill="#4CAF50" transform="matrix(1 0 0 1 264.578 240.548)" />
      <path d="M409.068 171.481C409.068 171.481 495.528 87.3437 495.528 87.3437C449.474 40.0179 388.585 9.91357 323.019 2.05255C257.452 -5.80846 191.173 9.04907 135.237 44.1468C79.3003 79.2446 37.0893 132.46 15.6446 194.917C-5.80014 257.374 -5.18175 325.295 17.3967 387.351C39.975 449.407 83.1481 501.845 139.714 535.919C196.28 569.992 262.819 583.641 328.232 574.587C393.644 565.533 453.974 534.325 499.159 486.169C544.344 438.012 571.651 375.819 576.526 309.963C576.526 309.963 456.213 301.058 456.213 301.058C453.376 339.39 437.481 375.59 411.181 403.62C384.881 431.65 349.765 449.815 311.691 455.084C273.618 460.354 234.888 452.41 201.964 432.577C169.039 412.745 143.91 382.223 130.768 346.102C117.626 309.982 117.266 270.448 129.748 234.095C142.23 197.741 166.799 166.767 199.357 146.338C231.915 125.909 270.494 117.261 308.657 121.836C346.821 126.412 382.261 143.934 409.068 171.481Z" fill="#4F679E" fill-rule="evenodd" transform="scale(1 1)" />
      <path d="M0 60.6667C0 27.1614 27.1611 0 60.6661 0C94.171 0 121.332 27.1614 121.332 60.6667C121.332 94.172 94.171 121.333 60.6661 121.333C27.1611 121.333 0 94.172 0 60.6667Z" fill="#FFC107" fill-rule="evenodd" transform="matrix(1 0 0 1 456 240.548)" />
      <path d="M0 60.4994C0 27.0865 27.0868 0 60.5 0C93.9132 0 121 27.0865 121 60.4994C121 93.9122 93.9132 120.999 60.5 120.999C27.0868 120.999 0 93.9122 0 60.4994Z" fill="#FFC107" fill-rule="evenodd" transform="matrix(1 0 0 1 393 70)" />
    </g>
  </g>
</svg>