<?xml version="1.0" encoding="utf-8"?>
<svg width="712" height="712" viewBox="0 0 712 712" fill="none" xmlns="http://www.w3.org/2000/svg">
  <g>
    <path d="M110 0L602 0C662.76 0 712 49.2404 712 110L712 602C712 662.76 662.76 712 602 712L110 712C49.2404 712 0 662.76 0 602L0 110C0 49.2404 49.2404 0 110 0L110 0Z" fill="#4F679E" />
    <g transform="translate(67 67)">
      <path d="M60 0L252.711 0C285.852 0 312.711 26.8584 312.711 60L312.711 60.2745C312.711 93.416 285.852 120.274 252.711 120.274L60 120.274C26.8584 120.274 0 93.416 0 60.2745L0 60C0 26.8584 26.8584 0 60 0L60 0Z" fill="#4CAF50" transform="matrix(1 0 0 1 264.578 240.548)" />
      <path d="M409.068 171.481C409.068 171.481 495.528 87.3437 495.528 87.3437C449.474 40.0179 388.585 9.91357 323.019 2.05255C257.452 -5.80846 191.173 9.04907 135.237 44.1468C79.3003 79.2446 37.0893 132.46 15.6446 194.917C-5.80014 257.374 -5.18175 325.295 17.3967 387.351C39.975 449.407 83.1481 501.845 139.714 535.919C196.28 569.992 262.819 583.641 328.232 574.587C393.644 565.533 453.974 534.325 499.159 486.169C544.344 438.012 571.651 375.819 576.526 309.963C576.526 309.963 456.213 301.058 456.213 301.058C453.376 339.39 437.481 375.59 411.181 403.62C384.881 431.65 349.765 449.815 311.691 455.084C273.618 460.354 234.888 452.41 201.964 432.577C169.039 412.745 143.91 382.223 130.768 346.102C117.626 309.982 117.266 270.448 129.748 234.095C142.23 197.741 166.799 166.767 199.357 146.338C231.915 125.909 270.494 117.261 308.657 121.836C346.821 126.412 382.261 143.934 409.068 171.481Z" fill="#FFFFFF" fill-rule="evenodd" transform="scale(1 1)" />
      <path d="M0 60.6667C0 27.1614 27.1611 0 60.6661 0C94.171 0 121.332 27.1614 121.332 60.6667C121.332 94.172 94.171 121.333 60.6661 121.333C27.1611 121.333 0 94.172 0 60.6667Z" fill="#FFC107" fill-rule="evenodd" transform="matrix(1 0 0 1 456 240.548)" />
      <path d="M0 60.4994C0 27.0865 27.0868 0 60.5 0C93.9132 0 121 27.0865 121 60.4994C121 93.9122 93.9132 120.999 60.5 120.999C27.0868 120.999 0 93.9122 0 60.4994Z" fill="#FFC107" fill-rule="evenodd" transform="matrix(1 0 0 1 393 70)" />
    </g>
  </g>
</svg>