<?xml version="1.0" encoding="utf-8"?>
<svg width="700" height="840" viewBox="0 0 700 840" fill="none" xmlns="http://www.w3.org/2000/svg">
  <defs>
    <linearGradient id="gradient_1" gradientUnits="userSpaceOnUse" x1="0.956" y1="-6.398" x2="0.956" y2="18.974">
      <stop offset="0" stop-color="#D968D0" />
      <stop offset="1" stop-color="#EB4634" />
    </linearGradient>
    <linearGradient id="gradient_2" gradientUnits="userSpaceOnUse" x1="7.6" y1="-0.025" x2="7.6" y2="25.343">
      <stop offset="0" stop-color="#D968D0" />
      <stop offset="1" stop-color="#EB4634" />
    </linearGradient>
    <linearGradient id="gradient_3" gradientUnits="userSpaceOnUse" x1="2.684" y1="-2.151" x2="2.684" y2="23.217">
      <stop offset="0" stop-color="#D968D0" />
      <stop offset="1" stop-color="#EB4634" />
    </linearGradient>
    <linearGradient id="gradient_4" gradientUnits="userSpaceOnUse" x1="0.432" y1="-9.408" x2="0.432" y2="15.965">
      <stop offset="0" stop-color="#D968D0" />
      <stop offset="1" stop-color="#EB4634" />
    </linearGradient>
    <linearGradient id="gradient_5" gradientUnits="userSpaceOnUse" x1="0.371" y1="-14.029" x2="0.371" y2="11.343">
      <stop offset="0" stop-color="#D968D0" />
      <stop offset="1" stop-color="#EB4634" />
    </linearGradient>
    <linearGradient id="gradient_6" gradientUnits="userSpaceOnUse" x1="1.956" y1="-11.715" x2="1.956" y2="13.648">
      <stop offset="0" stop-color="#D968D0" />
      <stop offset="1" stop-color="#EB4634" />
    </linearGradient>
    <linearGradient id="gradient_7" gradientUnits="userSpaceOnUse" x1="1.581" y1="-18.555" x2="1.581" y2="6.806">
      <stop offset="0" stop-color="#D968D0" />
      <stop offset="1" stop-color="#EB4634" />
    </linearGradient>
    <linearGradient id="gradient_8" gradientUnits="userSpaceOnUse" x1="1.91" y1="-10.246" x2="1.91" y2="15.118">
      <stop offset="0" stop-color="#D968D0" />
      <stop offset="1" stop-color="#EB4634" />
    </linearGradient>
    <linearGradient id="gradient_9" gradientUnits="userSpaceOnUse" x1="1.939" y1="-12.949" x2="1.939" y2="12.412">
      <stop offset="0" stop-color="#D968D0" />
      <stop offset="1" stop-color="#EB4634" />
    </linearGradient>
    <linearGradient id="gradient_10" gradientUnits="userSpaceOnUse" x1="3.339" y1="-8.785" x2="3.339" y2="16.577">
      <stop offset="0" stop-color="#D968D0" />
      <stop offset="1" stop-color="#EB4634" />
    </linearGradient>
    <linearGradient id="gradient_11" gradientUnits="userSpaceOnUse" x1="1.67" y1="-16.137" x2="1.67" y2="9.224">
      <stop offset="0" stop-color="#D968D0" />
      <stop offset="1" stop-color="#EB4634" />
    </linearGradient>
    <linearGradient id="gradient_12" gradientUnits="userSpaceOnUse" x1="4.061" y1="-7.326" x2="4.061" y2="18.035">
      <stop offset="0" stop-color="#D968D0" />
      <stop offset="1" stop-color="#EB4634" />
    </linearGradient>
    <linearGradient id="gradient_13" gradientUnits="userSpaceOnUse" x1="1.57" y1="-7.881" x2="1.57" y2="17.482">
      <stop offset="0" stop-color="#D968D0" />
      <stop offset="1" stop-color="#EB4634" />
    </linearGradient>
    <linearGradient id="gradient_14" gradientUnits="userSpaceOnUse" x1="1.41" y1="-16.953" x2="1.41" y2="8.408">
      <stop offset="0" stop-color="#D968D0" />
      <stop offset="1" stop-color="#EB4634" />
    </linearGradient>
    <linearGradient id="gradient_15" gradientUnits="userSpaceOnUse" x1="6.289" y1="-5.866" x2="6.289" y2="19.495">
      <stop offset="0" stop-color="#D968D0" />
      <stop offset="1" stop-color="#EB4634" />
    </linearGradient>
    <linearGradient id="gradient_16" gradientUnits="userSpaceOnUse" x1="0.951" y1="-19.214" x2="0.951" y2="6.146">
      <stop offset="0" stop-color="#D968D0" />
      <stop offset="1" stop-color="#EB4634" />
    </linearGradient>
    <linearGradient id="gradient_17" gradientUnits="userSpaceOnUse" x1="1.144" y1="-7.414" x2="1.144" y2="17.947">
      <stop offset="0" stop-color="#D968D0" />
      <stop offset="1" stop-color="#EB4634" />
    </linearGradient>
    <linearGradient id="gradient_18" gradientUnits="userSpaceOnUse" x1="4.153" y1="-4.407" x2="4.153" y2="20.954">
      <stop offset="0" stop-color="#D968D0" />
      <stop offset="1" stop-color="#EB4634" />
    </linearGradient>
    <linearGradient id="gradient_19" gradientUnits="userSpaceOnUse" x1="2.628" y1="-6.038" x2="2.628" y2="19.325">
      <stop offset="0" stop-color="#D968D0" />
      <stop offset="1" stop-color="#EB4634" />
    </linearGradient>
    <linearGradient id="gradient_20" gradientUnits="userSpaceOnUse" x1="1.092" y1="-12.063" x2="1.092" y2="13.301">
      <stop offset="0" stop-color="#D968D0" />
      <stop offset="1" stop-color="#EB4634" />
    </linearGradient>
    <linearGradient id="gradient_21" gradientUnits="userSpaceOnUse" x1="9.023" y1="-2.946" x2="9.023" y2="22.416">
      <stop offset="0" stop-color="#D968D0" />
      <stop offset="1" stop-color="#EB4634" />
    </linearGradient>
    <linearGradient id="gradient_22" gradientUnits="userSpaceOnUse" x1="0.683" y1="-12.957" x2="0.683" y2="12.405">
      <stop offset="0" stop-color="#D968D0" />
      <stop offset="1" stop-color="#EB4634" />
    </linearGradient>
    <linearGradient id="gradient_23" gradientUnits="userSpaceOnUse" x1="6.368" y1="-1.487" x2="6.368" y2="23.876">
      <stop offset="0" stop-color="#D968D0" />
      <stop offset="1" stop-color="#EB4634" />
    </linearGradient>
    <linearGradient id="gradient_24" gradientUnits="userSpaceOnUse" x1="4.001" y1="-1.972" x2="4.001" y2="23.388">
      <stop offset="0" stop-color="#D968D0" />
      <stop offset="1" stop-color="#EB4634" />
    </linearGradient>
    <clipPath id="clip_path_25">
      <rect width="69.95" height="13" />
    </clipPath>
  </defs>
  <g>
    <rect width="700" height="840" fill="#FFFFFF" fill-rule="evenodd" />
    <g transform="translate(16 92)">
      <g>
        <path d="M10 0L658 0C663.524 0 668 4.4764 668 10L668 459C668 464.524 663.524 469 658 469L10 469C4.4764 469 0 464.524 0 459L0 10C0 4.4764 4.4764 0 10 0L10 0Z" fill="#BBDEFB" transform="translate(0 34)" />
        <path d="M10 0L185.049 0C190.573 0 195.049 4.4764 195.049 10L195.049 44L0 44L0 10C0 4.4764 4.47641 0 10 0L10 0Z" fill="#BBDEFB" transform="translate(472.951 0)" />
        <path d="M10 0L376 0C381.524 0 386 4.4764 386 10L386 15C386 20.5236 381.524 25 376 25L10 25C4.4764 25 0 20.5236 0 15L0 10C0 4.4764 4.4764 0 10 0L10 0Z" fill="#BBDEFB" transform="translate(60 0)" />
        <path d="M0.0129395 9C0.0043335 9.16558 0 9.33228 0 9.5C0 14.7474 4.25259 19 9.5 19L23.2959 19C28.5433 19 32.7959 14.7474 32.7959 9.5C32.7959 4.25258 28.5433 0 23.2959 0L17.248 0C16.9881 5.01492 12.8407 9 7.76096 9L0.0129395 9Z" fill="#BBDEFB" fill-rule="evenodd" transform="translate(455.69 25.005)" />
      </g>
    </g>
    <g transform="translate(188 606)">
      <path d="M10 0L377.001 -1.33514e-05C382.525 -1.33514e-05 387.001 4.4764 387.001 10L387.001 87.0003L3.07895e-06 87.0003L3.53903e-07 10C1.58421e-07 4.47642 4.47642 0 10 0L10 0Z" fill="#BBDEFB" transform="matrix(1 -0 0 1 0 26)" />
      <path d="M0 13C0 5.8203 5.59644 0 12.5 0C19.4036 0 25 5.8203 25 13C25 20.1797 19.4036 26 12.5 26C5.59644 26 0 20.1797 0 13Z" fill="#BBDEFB" fill-rule="evenodd" transform="translate(339 0)" />
    </g>
    <g transform="translate(26 92)">
      <g transform="scale(1 1)">
        <g transform="scale(1 1)">
          <path d="M0.547802 8.2635C0.400755 8.2635 0.269186 8.15998 0.239003 8.01016C-0.0336789 6.65605 -0.0732602 5.28246 0.121439 3.92764C0.309578 2.61813 0.711765 1.35451 1.31672 0.17187C1.39611 0.0167031 1.58612 -0.0447221 1.74113 0.0347795C1.89614 0.114244 1.95746 0.304459 1.87808 0.459626C1.30493 1.5801 0.923897 2.77713 0.745671 4.01751C0.561254 5.30079 0.598809 6.60215 0.857228 7.8854C0.89165 8.05628 0.781125 8.22277 0.610418 8.25723C0.58941 8.26143 0.56844 8.2635 0.547802 8.2635C0.547802 8.2635 0.547802 8.2635 0.547802 8.2635Z" fill="url(#gradient_1)" transform="matrix(1 0 0 1 0 6.372)" />
          <path d="M0.315118 5.43114C0.250618 5.43114 0.185566 5.41141 0.129508 5.37046C-0.0112107 5.26773 -0.0420227 5.07027 0.0606229 4.92947C1.83118 2.50094 4.42927 0.835979 7.37636 0.241351C9.99118 -0.28629 12.6357 0.0549577 15.0243 1.22832C15.1806 1.30512 15.2452 1.49424 15.1684 1.65072C15.0917 1.80719 14.9028 1.87178 14.7464 1.79498C12.4839 0.683522 9.97843 0.360276 7.501 0.860177C4.70893 1.42352 2.24751 3.00084 0.570128 5.30152C0.508393 5.38621 0.412418 5.43114 0.315118 5.43114C0.315118 5.43114 0.315118 5.43114 0.315118 5.43114Z" fill="url(#gradient_2)" transform="matrix(1 0 0 1 2.249 0)" />
          <path d="M5.0529 7.88767C4.90585 7.88767 4.77427 7.7842 4.74409 7.63432C4.16589 4.76325 2.52876 2.25582 0.134201 0.574004C-0.00832176 0.473855 -0.0427818 0.277023 0.057209 0.134378C0.157345 -0.0083766 0.354008 -0.0428298 0.496531 0.0573199C3.02403 1.83257 4.75209 4.47918 5.36238 7.50964C5.39676 7.68051 5.28627 7.84698 5.11555 7.8814C5.09455 7.88564 5.07358 7.88767 5.0529 7.88767C5.0529 7.88767 5.0529 7.88767 5.0529 7.88767Z" fill="url(#gradient_3)" transform="matrix(1 0 0 1 18.39 2.126)" />
        </g>
      </g>
      <g transform="matrix(1 0 0 1 0.239 9.378)">
        <g transform="scale(1 1)">
          <path d="M0.54603 3.17854C0.544003 3.17854 0.541975 3.17854 0.539911 3.17847C0.365738 3.17514 0.227247 3.03115 0.230528 2.85683C0.246342 2.0286 0.170847 1.19466 0.00629425 0.378199C-0.0281715 0.207308 0.0823402 0.0408073 0.253086 0.00631182C0.424053 -0.0282208 0.590191 0.082423 0.624619 0.253315C0.798275 1.11471 0.877861 1.9947 0.861273 2.86882C0.857994 3.04111 0.717438 3.17854 0.54603 3.17854C0.54603 3.17854 0.54603 3.17854 0.54603 3.17854Z" fill="url(#gradient_4)" transform="matrix(1 0 0 1 22.899 0)" />
          <path d="M0.427079 1.13006C0.285323 1.13006 0.156505 1.03373 0.121085 0.889811C0.0785512 0.716784 0.0399241 0.544679 0.00630907 0.378253C-0.02819 0.207365 0.0822732 0.0408311 0.252961 0.00633669C0.423908 -0.0282688 0.590063 0.0823359 0.624562 0.253224C0.656407 0.411014 0.693044 0.574413 0.733513 0.738846C0.775163 0.908147 0.67185 1.07918 0.50271 1.12084C0.477426 1.12707 0.452031 1.13006 0.427079 1.13006C0.427079 1.13006 0.427079 1.13006 0.427079 1.13006Z" fill="url(#gradient_5)" transform="matrix(1 0 0 1 0 4.621)" />
        </g>
      </g>
      <path d="M0.315117 11.9224C0.241209 11.9224 0.167042 11.8965 0.107171 11.8438C-0.0236244 11.7289 -0.0364828 11.5295 0.078433 11.3985C1.35559 9.94353 2.30258 8.19089 2.81707 6.33011C3.3565 4.3792 3.42573 2.37659 3.02292 0.378035C2.98847 0.207209 3.09893 0.0407743 3.26959 0.00632858C3.44032 -0.028264 3.60656 0.0824471 3.64094 0.253234C4.06357 2.34989 3.99081 4.45108 3.4247 6.49846C2.88498 8.45052 1.89163 10.289 0.552022 11.8151C0.489757 11.8861 0.402659 11.9224 0.315117 11.9224C0.315117 11.9224 0.315117 11.9224 0.315117 11.9224Z" fill="url(#gradient_6)" transform="matrix(1 0 0 1 8.663 11.689)" />
      <path d="M0.315234 4.5631C0.235875 4.5631 0.156441 4.53326 0.0951343 4.47341C-0.0295053 4.35172 -0.0320106 4.15199 0.0896082 4.0272C1.16502 2.92369 1.9941 1.63631 2.55374 0.200867C2.61704 0.0385704 2.79993 -0.0416012 2.962 0.0216045C3.12418 0.0849972 3.20439 0.267944 3.14105 0.430277C2.55053 1.94497 1.6757 3.30341 0.540896 4.46784C0.479149 4.53127 0.39721 4.5631 0.315234 4.5631C0.315234 4.5631 0.315234 4.5631 0.315234 4.5631Z" fill="url(#gradient_7)" transform="matrix(1 0 0 1 7.153 18.53)" />
      <path d="M0.402562 13.7071C0.334661 13.7071 0.266284 13.6853 0.208661 13.6402C0.0714607 13.5329 0.0471821 13.3345 0.154356 13.1972C2.72934 9.89849 3.73259 5.65633 2.90681 1.5584C2.90681 1.5584 2.88559 1.4531 2.88559 1.4531C2.80877 1.19556 2.64604 0.974967 2.41964 0.824379C2.1634 0.653949 1.85625 0.593684 1.55488 0.654576C0.984414 0.769647 0.597201 1.29082 0.632829 1.85673C0.632829 1.85673 0.66385 2.01079 0.66385 2.01079C0.991819 3.64007 0.983236 5.28371 0.638244 6.89603C0.601732 7.06642 0.434138 7.17489 0.263963 7.13849C0.0937157 7.10201 -0.0147133 6.93424 0.0217247 6.76384C0.327036 5.33696 0.354153 3.88379 0.102888 2.43979C0.102888 2.43979 0.0964031 2.44097 0.0964031 2.44097C0.0964031 2.44097 0.0353174 2.13736 0.0353174 2.13736C-0.158804 1.17295 0.466927 0.230175 1.43017 0.0358448C1.89659 -0.0584984 2.37193 0.0348492 2.7685 0.298664C3.16503 0.562406 3.43531 0.964895 3.52948 1.432C3.52948 1.432 3.585 1.70729 3.585 1.70729C3.585 1.70729 3.57778 1.70965 3.57778 1.70965C4.3413 5.9024 3.28186 10.2157 0.651102 13.5858C0.588984 13.6654 0.496215 13.7071 0.402562 13.7071C0.402562 13.7071 0.402562 13.7071 0.402562 13.7071Z" fill="url(#gradient_8)" transform="matrix(1 0 0 1 10.209 10.221)" />
      <path d="M0.315302 9.47663C0.231078 9.47663 0.147112 9.44307 0.0850306 9.37666C-0.0338998 9.24943 -0.0272684 9.04975 0.0998793 8.93067C2.44415 6.7356 3.58744 3.5308 3.15814 0.35791C3.13478 0.185218 3.2557 0.0262413 3.42824 0.00289917C3.60089 -0.0205183 3.75957 0.100549 3.78297 0.273241C4.23961 3.64833 3.02374 7.05705 0.530616 9.39152C0.469823 9.44845 0.392489 9.47663 0.315302 9.47663C0.315302 9.47663 0.315302 9.47663 0.315302 9.47663Z" fill="url(#gradient_9)" transform="matrix(1 0 0 1 5.774 12.924)" />
      <path d="M6.36352 6.13087C6.18985 6.13087 6.04881 5.99014 6.04834 5.81615C6.04565 4.78764 5.9402 3.7491 5.73502 2.72937C5.73502 2.72937 5.71045 2.60731 5.71045 2.60731C5.5524 1.97488 5.17 1.4318 4.62392 1.06859C4.04335 0.682394 3.34732 0.545758 2.66407 0.683721C1.63848 0.890758 0.837706 1.68682 0.623908 2.71182C0.588319 2.88242 0.421309 2.99195 0.250876 2.95622C0.0804424 2.92063 -0.0288706 2.75342 0.00671959 2.58286C0.272098 1.31036 1.26626 0.322054 2.53936 0.0650835C3.3877 -0.106292 4.25199 0.0634232 4.97286 0.542956C5.69372 1.02245 6.18487 1.75431 6.35579 2.60362C6.35579 2.60362 6.40666 2.8565 6.40666 2.8565C6.40666 2.8565 6.40206 2.85845 6.40206 2.85845C6.58318 3.83684 6.67621 4.82998 6.67878 5.81445C6.67926 5.9887 6.53849 6.13035 6.36441 6.13083C6.36415 6.13087 6.36385 6.13087 6.36352 6.13087C6.36352 6.13087 6.36352 6.13087 6.36352 6.13087Z" fill="url(#gradient_10)" transform="matrix(1 0 0 1 8.812 8.76)" />
      <path d="M0.314987 7.88789C0.253677 7.88789 0.191704 7.87 0.137284 7.83272C-0.00644779 7.73437 -0.0432177 7.538 0.0551214 7.39414C1.50357 5.27504 2.42181 2.8149 2.7106 0.279791C2.73031 0.106691 2.8868 -0.0177326 3.05956 0.00207138C3.23251 0.0217628 3.35679 0.17816 3.33704 0.351295C3.03672 2.98822 2.08181 5.54679 0.575482 7.75041C0.514393 7.8398 0.415537 7.88789 0.314987 7.88789C0.314987 7.88789 0.314987 7.88789 0.314987 7.88789Z" fill="url(#gradient_11)" transform="matrix(1 0 0 1 12.05 16.112)" />
      <path d="M0.315403 14.2578C0.227091 14.2578 0.139296 14.2209 0.0769582 14.1488C-0.0370326 14.0171 -0.0227375 13.8178 0.108863 13.7037C1.22147 12.7392 2.06804 11.4947 2.55701 10.1048C3.02664 8.76987 3.15109 7.33402 2.92098 5.93319C2.92098 5.93319 2.91843 5.93364 2.91843 5.93364C2.91843 5.93364 2.8579 5.63335 2.8579 5.63335C2.60973 4.40183 2.85551 3.14737 3.5501 2.10109C4.24458 1.05484 5.30469 0.341928 6.53504 0.0936327C6.96293 0.0072298 7.39885 -0.0195436 7.83083 0.0140147C8.00443 0.0275488 8.13415 0.179336 8.12067 0.353065C8.10715 0.526794 7.95583 0.656602 7.78198 0.643179C7.4081 0.614009 7.03057 0.637316 6.65968 0.712214C5.59438 0.927208 4.67656 1.54446 4.07525 2.45032C3.5221 3.2836 3.29773 4.2694 3.43254 5.25192C3.43254 5.25192 3.48397 5.50715 3.48397 5.50715C3.8077 7.11393 3.69279 8.77625 3.15169 10.3143C2.62639 11.8075 1.71693 13.1445 0.521611 14.1807C0.461998 14.2324 0.388535 14.2578 0.315403 14.2578C0.315403 14.2578 0.315403 14.2578 0.315403 14.2578Z" fill="url(#gradient_12)" transform="matrix(1 0 0 1 4.528 7.301)" />
      <path d="M0.416396 15.9338C0.362198 15.9338 0.307301 15.9198 0.257229 15.8904C0.107014 15.8022 0.0567217 15.6089 0.14478 15.4586C2.28709 11.8034 3.00567 7.50142 2.16827 3.3452C2.16827 3.3452 2.14071 3.20849 2.14071 3.20849C1.87731 2.09823 1.16209 1.14969 0.161765 0.591218C0.00967216 0.506322 -0.0448208 0.314106 0.0399952 0.161904C0.124775 0.00973892 0.316771 -0.0448794 0.468863 0.0400176C1.67091 0.711114 2.51641 1.87002 2.78858 3.21955C2.78858 3.21955 2.84263 3.48759 2.84263 3.48759C2.84263 3.48759 2.83836 3.4891 2.83836 3.4891C3.62299 7.71406 2.86345 12.0673 0.688638 15.7779C0.629947 15.8781 0.524609 15.9338 0.416396 15.9338C0.416396 15.9338 0.416396 15.9338 0.416396 15.9338Z" fill="url(#gradient_13)" transform="matrix(1 0 0 1 13.81 7.856)" />
      <path d="M0.315445 3.6534C0.224217 3.6534 0.133728 3.61398 0.0713873 3.53783C-0.0389616 3.40301 -0.0191767 3.20421 0.11549 3.0938C1.04909 2.32839 1.77379 1.32823 2.2112 0.201359C2.27425 0.0389175 2.45692 -0.0416183 2.61922 0.021513C2.78152 0.0846443 2.86195 0.267477 2.79891 0.429882C2.32222 1.65783 1.53246 2.74779 0.514995 3.58193C0.456449 3.63005 0.385708 3.6534 0.315445 3.6534C0.315445 3.6534 0.315445 3.6534 0.315445 3.6534Z" fill="url(#gradient_14)" transform="matrix(1 0 0 1 3.42 16.928)" />
      <path d="M12.013 12.1611C11.996 12.1611 11.9787 12.1598 11.9614 12.1569C11.7896 12.1286 11.6733 11.9663 11.7015 11.7943C12.0679 9.56665 12.0257 7.3047 11.576 5.07136C11.576 5.07136 11.5589 4.9864 11.5589 4.9864C11.2521 3.57401 10.4232 2.35863 9.21754 1.55696C7.98804 0.739435 6.51395 0.450026 5.06706 0.742164C3.61965 1.03416 2.37265 1.87266 1.55572 3.10328C0.791557 4.25432 0.489231 5.61957 0.692256 6.97657C0.692256 6.97657 0.748484 7.25613 0.748484 7.25613C0.903166 8.02524 0.939719 8.80585 0.856998 9.57628C0.838428 9.74953 0.682898 9.87487 0.509866 9.85629C0.336724 9.8377 0.211483 9.68211 0.23009 9.50887C0.294793 8.90582 0.279833 8.29569 0.185653 7.6908C0.185653 7.6908 0.12353 7.38247 0.12353 7.38247C-0.201753 5.76881 0.120398 4.12506 1.03055 2.75405C1.94073 1.38304 3.33 0.448844 4.94248 0.123552C6.55448 -0.201849 8.1967 0.120529 9.56655 1.03135C10.9364 1.94225 11.8698 3.3325 12.1947 4.94605C12.1947 4.94605 12.2243 5.09316 12.2243 5.09316C12.2243 5.09316 12.2233 5.09437 12.2233 5.09437C12.6606 7.35489 12.6945 9.64258 12.3238 11.8968C12.2983 12.0514 12.1646 12.1611 12.013 12.1611C12.013 12.1611 12.013 12.1611 12.013 12.1611Z" fill="url(#gradient_15)" transform="matrix(1 0 0 1 5.834 5.841)" />
      <path d="M0.315099 4.03852C0.26875 4.03852 0.2217 4.02823 0.177228 4.00654C0.0206776 3.93021 -0.0443506 3.74137 0.0319529 3.58472C0.554734 2.51088 0.975602 1.3835 1.28295 0.233953C1.32798 0.065649 1.5007 -0.0340633 1.66901 0.010704C1.8372 0.0557671 1.93701 0.228754 1.89206 0.397131C1.57428 1.58558 1.13915 2.75105 0.598687 3.86114C0.544122 3.97325 0.431895 4.03852 0.315099 4.03852C0.315099 4.03852 0.315099 4.03852 0.315099 4.03852Z" fill="url(#gradient_16)" transform="matrix(1 0 0 1 15.865 19.189)" />
      <path d="M0.630014 14.8227C0.592583 14.8227 0.554523 14.816 0.517462 14.8018C0.354837 14.7395 0.273453 14.5571 0.335644 14.3943C1.68464 10.8645 2.00874 7.03483 1.27436 3.31374C1.27436 3.31374 1.258 3.2339 1.258 3.2339C1.05702 2.23664 0.654074 1.31723 0.0604286 0.501331C-0.0420303 0.360462 -0.0110817 0.163097 0.129658 0.0605054C0.270433 -0.0421224 0.467579 -0.0110354 0.570074 0.129797C1.19161 0.984011 1.62138 1.94196 1.84863 2.97879C1.84863 2.97879 1.84991 2.97964 1.84991 2.97964C1.84991 2.97964 1.87651 3.10945 1.87651 3.10945C2.65504 6.97277 2.32585 10.953 0.924536 14.6198C0.876493 14.7455 0.756901 14.8227 0.630014 14.8227C0.630014 14.8227 0.630014 14.8227 0.630014 14.8227Z" fill="url(#gradient_17)" transform="matrix(1 0 0 1 17.58 7.389)" />
      <path d="M7.99084 2.2885C7.92058 2.28854 7.84996 2.26512 7.79134 2.21711C6.16193 0.881632 4.04458 0.354301 1.98193 0.770376C1.4511 0.877391 0.934564 1.04518 0.446691 1.26902C0.288413 1.34159 0.101327 1.27208 0.0287466 1.11366C-0.0437965 0.955273 0.0256882 0.767979 0.183966 0.695333C0.715976 0.451249 1.27901 0.268342 1.8574 0.15174C4.10592 -0.302022 6.41441 0.272916 8.19075 1.72886C8.32545 1.83927 8.34523 2.03807 8.23489 2.17289C8.17262 2.24908 8.08206 2.2885 7.99084 2.2885C7.99084 2.2885 7.99084 2.2885 7.99084 2.2885Z" fill="url(#gradient_18)" transform="matrix(1 0 0 1 8.629 4.381)" />
      <path d="M0.315463 13.4734C0.223208 13.4734 0.131801 13.433 0.069499 13.3555C-0.039556 13.2196 -0.0178931 13.021 0.1178 12.9118C1.67265 11.6615 2.42775 9.70113 2.1242 7.74605C2.1242 7.74605 2.0745 7.49932 2.0745 7.49932C1.5129 4.71147 2.53526 1.86497 4.74256 0.0706072C4.87774 -0.0392561 5.07628 -0.018641 5.186 0.116632C5.2958 0.251943 5.2752 0.450649 5.14002 0.560513C3.18837 2.14699 2.24659 4.62996 2.64236 7.09716C2.64236 7.09716 2.69803 7.37335 2.69803 7.37335C3.15507 9.64154 2.3177 11.9523 0.512685 13.4038C0.454508 13.4506 0.384764 13.4734 0.315463 13.4734C0.315463 13.4734 0.315463 13.4734 0.315463 13.4734Z" fill="url(#gradient_19)" transform="matrix(1 0 0 1 2.452 6.013)" />
      <path d="M0.315449 6.23768C0.226022 6.23768 0.137147 6.19977 0.0747644 6.12611C-0.0378027 5.99319 -0.0214056 5.79406 0.111464 5.68135C1.19628 4.76119 1.72101 3.34643 1.50723 1.95071C1.50723 1.95071 1.46946 1.76364 1.46946 1.76364C1.37454 1.29329 1.31629 0.810466 1.29624 0.328678C1.28902 0.154558 1.42417 0.00750923 1.59813 0.000243187C1.77208 -0.00650597 1.91899 0.128297 1.92625 0.302417C1.94103 0.657774 1.97813 1.01361 2.03679 1.36381C2.03679 1.36381 2.09195 1.6378 2.09195 1.6378C2.43054 3.31877 1.82783 5.05266 0.519103 6.16292C0.45989 6.21308 0.387448 6.23768 0.315449 6.23768C0.315449 6.23768 0.315449 6.23768 0.315449 6.23768Z" fill="url(#gradient_20)" transform="matrix(1 0 0 1 1.629 12.038)" />
      <path d="M17.7304 8.80207C17.5769 8.80207 17.4423 8.68956 17.419 8.53294C17.3708 8.20842 17.3152 7.88364 17.2534 7.56539C17.2534 7.56539 17.2218 7.41394 17.2218 7.41394C16.7761 5.2012 15.4963 3.29472 13.6181 2.04569C11.7399 0.796655 9.48803 0.354533 7.27719 0.800675C5.57663 1.14385 4.04628 1.98576 2.85146 3.23534C1.68339 4.45701 0.913807 5.97967 0.625916 7.63874C0.596146 7.81044 0.433116 7.92554 0.261354 7.89559C0.0898128 7.86579 -0.0251002 7.70243 0.00470543 7.53073C0.314114 5.74771 1.14098 4.11151 2.39593 2.79898C3.68024 1.45576 5.32507 0.550794 7.15255 0.181984C9.52845 -0.297419 11.9485 0.177744 13.967 1.52004C15.9208 2.81933 17.2721 4.78054 17.791 7.06154C17.791 7.06154 17.794 7.06183 17.794 7.06183C17.794 7.06183 17.8414 7.28929 17.8414 7.28929C17.9174 7.66614 17.9851 8.05328 18.0426 8.44001C18.0682 8.61237 17.9494 8.7729 17.7772 8.79856C17.7615 8.80093 17.7459 8.80207 17.7304 8.80207C17.7304 8.80207 17.7304 8.80207 17.7304 8.80207Z" fill="url(#gradient_21)" transform="matrix(1 0 0 1 3.046 2.921)" />
      <path d="M0.315504 7.62013C0.288572 7.62013 0.261274 7.61663 0.234085 7.60936C0.0658665 7.56444 -0.0341225 7.39156 0.0107155 7.22317C0.609648 4.97555 0.83906 2.65822 0.692726 0.335473C0.681747 0.161554 0.813749 0.0116434 0.987494 0.000691414C1.16131 -0.0107775 1.31096 0.121799 1.32194 0.295718C1.47266 2.68669 1.23643 5.07213 0.619852 7.38577C0.582275 7.5269 0.454838 7.62013 0.315504 7.62013C0.315504 7.62013 0.315504 7.62013 0.315504 7.62013Z" fill="url(#gradient_22)" transform="matrix(1 0 0 1 19.962 12.932)" />
      <path d="M0.315215 15.4533C0.238501 15.4533 0.16164 15.4255 0.100917 15.3692C-0.0267541 15.2507 -0.0343082 15.0511 0.0840787 14.9232C0.630064 14.3339 0.875422 13.5232 0.751325 12.735C0.751325 12.735 0.728296 12.6272 0.728296 12.6272C0.172179 9.86693 0.723285 7.05522 2.28014 4.70994C3.83693 2.36473 6.21306 0.766667 8.9708 0.210154C10.1291 -0.023662 11.3043 -0.0625702 12.4637 0.0944263C12.6362 0.117771 12.7572 0.276722 12.7339 0.449429C12.7105 0.6221 12.5515 0.743286 12.3791 0.719793C11.2895 0.572275 10.1847 0.608896 9.09542 0.828809C6.50278 1.35202 4.26891 2.85438 2.80535 5.05919C1.37484 7.2141 0.847568 9.78811 1.31253 12.3262C1.31253 12.3262 1.35 12.5018 1.35 12.5018C1.55538 13.5218 1.25501 14.5875 0.546462 15.3524C0.484375 15.4194 0.399923 15.4533 0.315215 15.4533C0.315215 15.4533 0.315215 15.4533 0.315215 15.4533Z" fill="url(#gradient_23)" transform="matrix(1 0 0 1 0.94 1.462)" />
      <path d="M7.50901 15.8651C7.49596 15.8651 7.48289 15.8643 7.46966 15.8626C7.2969 15.8411 7.17429 15.6834 7.19577 15.5105C7.4939 13.1141 7.41189 10.6896 6.95225 8.30097C6.95225 8.30097 6.90955 8.09863 6.90955 8.09863C6.20111 4.58037 3.63742 1.71322 0.219098 0.616046C0.0532732 0.562797 -0.038023 0.385165 0.0151405 0.219223C0.0683393 0.0532812 0.245956 -0.0379874 0.411597 0.0151142C3.95124 1.15123 6.62936 4.0721 7.4638 7.67899C7.4638 7.67899 7.46804 7.67832 7.46804 7.67832C7.46804 7.67832 7.5303 7.97348 7.5303 7.97348C8.03846 10.4945 8.13639 13.0565 7.82139 15.5885C7.80157 15.7482 7.66573 15.8651 7.50901 15.8651C7.50901 15.8651 7.50901 15.8651 7.50901 15.8651Z" fill="url(#gradient_24)" transform="matrix(1 0 0 1 14.787 1.947)" />
    </g>
    <g clip-path="url(#clip_path_25)" transform="translate(551 103)">
      <g>
        <g transform="translate(52.022 3.545)">
          <path d="M9.19848 3.6273C8.97013 2.61997 8.41336 1.71715 7.61577 1.06086C6.81819 0.404582 5.82504 0.0320862 4.79261 0.00197976C3.76016 -0.0281267 2.74699 0.285863 1.91253 0.894555C1.07805 1.50325 0.46962 2.3721 0.182952 3.3644C-0.103716 4.35672 -0.0523511 5.41616 0.328965 6.37608C0.710283 7.336 1.39991 8.14193 2.28936 8.66704C3.1788 9.19214 4.21758 9.40665 5.24226 9.27681C6.26695 9.14696 7.2194 8.68015 7.94976 7.94979C7.94976 7.94979 6.38709 6.38712 6.38709 6.38712C6.00334 6.7709 5.50288 7.01618 4.96447 7.08441C4.42605 7.15262 3.88021 7.0399 3.41286 6.76401C2.94551 6.48809 2.58314 6.06462 2.38279 5.56023C2.18243 5.05584 2.15544 4.49916 2.30607 3.97776C2.45669 3.45636 2.7764 2.99982 3.21485 2.67997C3.65333 2.36015 4.1857 2.19516 4.72819 2.21098C5.27069 2.2268 5.79251 2.42254 6.21161 2.76736C6.6307 3.1122 6.92326 3.5866 7.04324 4.1159C7.04324 4.1159 9.19848 3.6273 9.19848 3.6273Z" fill="#4F679E" fill-rule="evenodd" transform="scale(1 1)" />
          <path d="M0 1.20924C0 0.541393 0.54143 0 1.20932 0C1.87721 0 2.41863 0.541393 2.41863 1.20924C2.41863 1.87708 1.87721 2.41847 1.20932 2.41847C0.54143 2.41847 0 1.87708 0 1.20924Z" fill="#4F679E" fill-rule="evenodd" transform="matrix(1 0 0 1 6.905 6.902)" />
          <path d="M0 1.10377C0 0.494176 0.494149 0 1.10371 0C1.71328 0 2.20743 0.494176 2.20743 1.10377C2.20743 1.71337 1.71328 2.20755 1.10371 2.20755C0.494149 2.20755 0 1.71337 0 1.10377Z" fill="#4F679E" fill-rule="evenodd" transform="matrix(1 0 0 1 7.021 2.81)" />
          <path d="M0 1.10378C0 0.494177 0.494146 0 1.10371 0C1.71327 0 2.20741 0.494177 2.20741 1.10378C2.20741 1.71337 1.71327 2.20755 1.10371 2.20755C0.494146 2.20755 0 1.71337 0 1.10378Z" fill="#4F679E" fill-rule="evenodd" transform="matrix(1 0 0 1 6.106 6.021)" />
          <path d="M0 1.10377C0 0.494175 0.494148 0 1.10371 0C1.71328 0 2.20742 0.494175 2.20742 1.10377C2.20742 1.71337 1.71328 2.20754 1.10371 2.20754C0.494148 2.20754 0 1.71337 0 1.10377Z" fill="#4F679E" fill-rule="evenodd" transform="matrix(1 0 0 1 3.637 3.556)" />
          <path d="M1.81903 0.290712C1.81903 0.290712 2.84169 1.2448 2.84169 1.2448C3.27842 1.65224 3.30215 2.33635 2.8947 2.77307C2.8947 2.77307 2.8947 2.77307 2.8947 2.77307C2.48724 3.20978 1.8031 3.2335 1.36638 2.82606C1.36638 2.82606 0.343719 1.87198 0.343719 1.87198C-0.0930066 1.46454 -0.116731 0.780423 0.290721 0.343709C0.290721 0.343709 0.290721 0.343709 0.290721 0.343709C0.698173 -0.0930047 1.38231 -0.116727 1.81903 0.290712C1.81903 0.290712 1.81903 0.290712 1.81903 0.290712Z" fill="#4F679E" transform="matrix(1 0 0 1 6.141 6.031)" />
        </g>
        <g transform="translate(62.347 0.501)">
          <path d="M6.84231 2.40291C6.6402 1.79107 6.2723 1.24676 5.77923 0.830056C5.28617 0.413354 4.68712 0.140463 4.0482 0.0415033C3.40931 -0.0574562 2.75536 0.0213633 2.15857 0.269265C1.56178 0.517164 1.04535 0.924503 0.666287 1.44632C0.287219 1.96815 0.0602499 2.58415 0.0104322 3.22637C-0.0393855 3.86858 0.0898853 4.512 0.383977 5.08565C0.678067 5.65929 1.12554 6.14083 1.67701 6.47713C2.22848 6.81343 2.8625 6.99139 3.50909 6.99139C3.50909 6.99139 3.50909 4.79476 3.50909 4.79476C3.2688 4.79476 3.0332 4.72863 2.82825 4.60365C2.62333 4.47869 2.45703 4.29972 2.34774 4.08655C2.23846 3.87338 2.19041 3.63427 2.20892 3.39561C2.22743 3.15695 2.31177 2.92804 2.45266 2.73411C2.59352 2.54018 2.78544 2.38882 3.00722 2.29668C3.229 2.20457 3.47201 2.17527 3.70944 2.21205C3.94688 2.24883 4.16948 2.35024 4.35273 2.50508C4.53596 2.65995 4.67267 2.86221 4.74779 3.08959C4.74779 3.08959 6.84231 2.40291 6.84231 2.40291Z" fill="#4F679E" fill-rule="evenodd" transform="scale(1 1)" />
          <path d="M0 5.34703C0.278122 5.97226 0.719844 6.51085 1.27856 6.90595C1.83728 7.30106 2.49228 7.53804 3.17448 7.5919C3.85666 7.64577 4.54075 7.51452 5.15454 7.21198C5.76835 6.90945 6.28913 6.44687 6.66192 5.87303C7.03472 5.29918 7.24574 4.63536 7.27269 3.9516C7.29963 3.26782 7.14153 2.58946 6.81506 1.98805C6.48859 1.38664 6.00585 0.884502 5.41775 0.534598C4.82967 0.184694 4.15804 0 3.47372 0C3.47372 0 3.47372 2.19928 3.47372 2.19928C3.76218 2.19928 4.0453 2.27713 4.29319 2.42463C4.54109 2.57211 4.74456 2.78379 4.88219 3.0373C5.01979 3.29079 5.08644 3.57674 5.07507 3.86497C5.06372 4.1532 4.97477 4.43302 4.81763 4.67489C4.66049 4.91678 4.44097 5.11178 4.18224 5.23931C3.92351 5.36681 3.63514 5.42216 3.34758 5.39946C3.06004 5.37673 2.78394 5.27684 2.54843 5.11029C2.31291 4.94374 2.12672 4.71672 2.00947 4.45318C2.00947 4.45318 0 5.34703 0 5.34703Z" fill="#4F679E" fill-rule="evenodd" transform="matrix(1 0 0 1 0.328 4.794)" />
          <path d="M0 1.10376C0 0.494171 0.494145 0 1.10371 0C1.71327 0 2.20741 0.494171 2.20741 1.10376C2.20741 1.71335 1.71327 2.20753 1.10371 2.20753C0.494145 2.20753 0 1.71335 0 1.10376Z" fill="#4F679E" fill-rule="evenodd" transform="matrix(1 0 0 1 0.218 8.585)" />
          <path d="M0 1.10377C0 0.494175 0.494149 0 1.10371 0C1.71328 0 2.20743 0.494175 2.20743 1.10377C2.20743 1.71337 1.71328 2.20754 1.10371 2.20754C0.494149 2.20754 0 1.71337 0 1.10377Z" fill="#4F679E" fill-rule="evenodd" transform="matrix(1 0 0 1 4.701 1.695)" />
          <path d="M0.891943 0C0.891943 0 1.24872 0 1.24872 0C1.74139 0 2.14066 0.399265 2.14066 0.891932C2.14066 0.891932 2.14066 1.3156 2.14066 1.3156C2.14066 1.80827 1.74139 2.20753 1.24872 2.20753C1.24872 2.20753 0.891943 2.20753 0.891943 2.20753C0.399269 2.20753 0 1.80827 0 1.3156C0 1.3156 0 0.891932 0 0.891932C0 0.399265 0.399269 0 0.891943 0C0.891943 0 0.891943 0 0.891943 0Z" fill="#4F679E" transform="matrix(1 0 0 1 2.564 4.784)" />
        </g>
        <g transform="translate(38.62 3.523)">
          <path d="M7.17321 3.58654C7.17321 3.11554 7.08044 2.64917 6.90019 2.21402C6.71995 1.77889 6.45576 1.38352 6.12271 1.05047C5.78967 0.717424 5.39429 0.453234 4.95914 0.272997C4.524 0.0927602 4.05761 0 3.58662 0C3.1156 0 2.64923 0.0927602 2.21407 0.272997C1.77894 0.453234 1.38354 0.717424 1.05051 1.05047C0.717457 1.38352 0.453263 1.77889 0.273024 2.21402C0.092784 2.64917 0 3.11554 0 3.58654C0 3.58654 2.41077 3.58654 2.41077 3.58654C2.41077 3.43213 2.44118 3.27923 2.50027 3.13656C2.55936 2.99392 2.64597 2.8643 2.75517 2.75511C2.86436 2.64593 2.99399 2.55931 3.13663 2.50021C3.2793 2.44112 3.4322 2.41071 3.58662 2.41071C3.74101 2.41071 3.89391 2.44112 4.03658 2.50021C4.17924 2.55931 4.30887 2.64593 4.41804 2.75511C4.52724 2.8643 4.61384 2.99392 4.67293 3.13656C4.73203 3.27923 4.76244 3.43213 4.76244 3.58654C4.76244 3.58654 7.17321 3.58654 7.17321 3.58654Z" fill="#4F679E" fill-rule="evenodd" transform="matrix(1 0 0 1 0.008 0.007)" />
          <path d="M7.17326 3.58654C7.17326 3.11554 7.08049 2.64917 6.90025 2.21402C6.72 1.77889 6.45581 1.38352 6.12276 1.05047C5.78971 0.717424 5.39433 0.453234 4.95918 0.272997C4.52404 0.0927602 4.05764 0 3.58664 0C3.11563 0 2.64925 0.0927602 2.21409 0.272997C1.77895 0.453234 1.38355 0.717424 1.05052 1.05047C0.717462 1.38352 0.453267 1.77889 0.273026 2.21402C0.0927844 2.64917 0 3.11554 0 3.58654C0 3.58654 2.41078 3.58654 2.41078 3.58654C2.41078 3.43213 2.4412 3.27923 2.50029 3.13656C2.55938 2.99392 2.64599 2.8643 2.75519 2.75511C2.86439 2.64593 2.99401 2.55931 3.13665 2.50021C3.27932 2.44112 3.43222 2.41071 3.58664 2.41071C3.74104 2.41071 3.89394 2.44112 4.03661 2.50021C4.17928 2.55931 4.3089 2.64593 4.41807 2.75511C4.52727 2.8643 4.61388 2.99392 4.67297 3.13656C4.73206 3.27923 4.76248 3.43213 4.76248 3.58654C4.76248 3.58654 7.17326 3.58654 7.17326 3.58654Z" fill="#4F679E" fill-rule="evenodd" transform="matrix(1 0 0 1 4.78 0.007)" />
          <path d="M3.40243e-07 8.11658C3.40243e-07 8.11658 0 1.20411 0 1.20411C0 0.539017 0.539005 0 1.2041 0C1.2041 0 1.2041 0 1.2041 0C1.8692 0 2.4082 0.539017 2.4082 1.20411C2.4082 1.20411 2.4082 8.11658 2.4082 8.11658C2.4082 8.78168 1.8692 9.32069 1.2041 9.32069C1.2041 9.32069 1.2041 9.32069 1.2041 9.32069C0.539005 9.32069 3.40243e-07 8.78168 3.40243e-07 8.11658C3.40243e-07 8.11658 3.40243e-07 8.11658 3.40243e-07 8.11658Z" fill="#4F679E" transform="scale(1 1)" />
          <path d="M4.76837e-07 5.70837C4.76837e-07 5.70837 0 1.20411 0 1.20411C0 0.539017 0.539021 0 1.20414 0C1.20414 0 1.20414 0 1.20414 0C1.86925 0 2.40827 0.539017 2.40827 1.20411C2.40827 1.20411 2.40827 5.70837 2.40827 5.70837C2.40827 6.37347 1.86925 6.91248 1.20414 6.91248C1.20414 6.91248 1.20414 6.91248 1.20414 6.91248C0.539021 6.91248 4.76837e-07 6.37347 4.76837e-07 5.70837C4.76837e-07 5.70837 4.76837e-07 5.70837 4.76837e-07 5.70837Z" fill="#4F679E" transform="matrix(1 0 0 1 4.773 2.408)" />
          <path d="M0 5.70837C0 5.70837 0 1.20411 0 1.20411C0 0.539017 0.539035 0 1.20417 0C1.20417 0 1.20417 0 1.20417 0C1.8693 0 2.40834 0.539017 2.40834 1.20411C2.40834 1.20411 2.40834 5.70837 2.40834 5.70837C2.40834 6.37347 1.8693 6.91248 1.20417 6.91248C1.20417 6.91248 1.20417 6.91248 1.20417 6.91248C0.539035 6.91248 0 6.37347 0 5.70837C0 5.70837 0 5.70837 0 5.70837Z" fill="#4F679E" transform="matrix(1 0 0 1 9.546 2.408)" />
        </g>
        <g transform="translate(25.175 3.679)">
          <path d="M7.17316 3.58656C7.17316 3.11555 7.08039 2.64918 6.90015 2.21403C6.7199 1.7789 6.45572 1.38352 6.12267 1.05048C5.78963 0.717427 5.39425 0.453236 4.95911 0.272998C4.52397 0.0927606 4.05758 0 3.58659 0C3.11558 0 2.64921 0.0927606 2.21406 0.272998C1.77892 0.453236 1.38353 0.717427 1.0505 1.05048C0.717452 1.38352 0.45326 1.7789 0.273022 2.21403C0.0927833 2.64918 0 3.11555 0 3.58656C0 3.58656 2.41075 3.58656 2.41075 3.58656C2.41075 3.43214 2.44117 3.27924 2.50026 3.13658C2.55935 2.99393 2.64595 2.86431 2.75515 2.75512C2.86435 2.64595 2.99397 2.55932 3.13661 2.50023C3.27927 2.44113 3.43217 2.41072 3.58659 2.41072C3.74099 2.41072 3.89389 2.44113 4.03655 2.50023C4.17922 2.55932 4.30884 2.64595 4.41801 2.75512C4.52721 2.86431 4.61381 2.99393 4.6729 3.13658C4.732 3.27924 4.76241 3.43214 4.76241 3.58656C4.76241 3.58656 7.17316 3.58656 7.17316 3.58656Z" fill="#4F679E" fill-rule="evenodd" transform="matrix(1 0 0 1 0.007 0.007)" />
          <path d="M7.1732 3.58656C7.1732 3.11555 7.08043 2.64918 6.90019 2.21403C6.71994 1.7789 6.45576 1.38352 6.12271 1.05048C5.78966 0.717427 5.39428 0.453236 4.95914 0.272998C4.524 0.0927606 4.0576 0 3.58661 0C3.1156 0 2.64922 0.0927606 2.21407 0.272998C1.77893 0.453236 1.38354 0.717427 1.05051 1.05048C0.717456 1.38352 0.453263 1.7789 0.273023 2.21403C0.0927839 2.64918 0 3.11555 0 3.58656C0 3.58656 2.41076 3.58656 2.41076 3.58656C2.41076 3.43214 2.44118 3.27924 2.50027 3.13658C2.55936 2.99393 2.64597 2.86431 2.75517 2.75512C2.86436 2.64595 2.99398 2.55932 3.13663 2.50023C3.27929 2.44113 3.43219 2.41072 3.58661 2.41072C3.74101 2.41072 3.89391 2.44113 4.03657 2.50023C4.17924 2.55932 4.30886 2.64595 4.41803 2.75512C4.52723 2.86431 4.61384 2.99393 4.67293 3.13658C4.73202 3.27924 4.76244 3.43214 4.76244 3.58656C4.76244 3.58656 7.1732 3.58656 7.1732 3.58656Z" fill="#4F679E" fill-rule="evenodd" transform="matrix(1 0 0 1 4.779 0.007)" />
          <path d="M3.40252e-07 8.11658C3.40252e-07 8.11658 0 1.20411 0 1.20411C0 0.539017 0.539018 0 1.20413 0C1.20413 0 1.20413 0 1.20413 0C1.86925 0 2.40826 0.539017 2.40826 1.20411C2.40826 1.20411 2.40826 8.11658 2.40826 8.11658C2.40826 8.78168 1.86925 9.32069 1.20413 9.32069C1.20413 9.32069 1.20413 9.32069 1.20413 9.32069C0.539018 9.32069 3.40252e-07 8.78168 3.40252e-07 8.11658C3.40252e-07 8.11658 3.40252e-07 8.11658 3.40252e-07 8.11658Z" fill="#4F679E" transform="scale(1 1)" />
          <path d="M4.76837e-07 5.70838C4.76837e-07 5.70838 0 1.20411 0 1.20411C0 0.539018 0.539021 0 1.20413 0C1.20413 0 1.20413 0 1.20413 0C1.86925 0 2.40827 0.539018 2.40827 1.20411C2.40827 1.20411 2.40827 5.70838 2.40827 5.70838C2.40827 6.37348 1.86925 6.91249 1.20414 6.91249C1.20414 6.91249 1.20414 6.91249 1.20414 6.91249C0.539021 6.91249 4.76837e-07 6.37348 4.76837e-07 5.70838C4.76837e-07 5.70838 4.76837e-07 5.70838 4.76837e-07 5.70838Z" fill="#4F679E" transform="matrix(1 0 0 1 4.772 2.408)" />
          <path d="M0 5.70838C0 5.70838 0 1.20411 0 1.20411C0 0.539018 0.539002 0 1.2041 0C1.2041 0 1.2041 0 1.2041 0C1.86919 0 2.40819 0.539018 2.40819 1.20411C2.40819 1.20411 2.40819 5.70838 2.40819 5.70838C2.40819 6.37348 1.86919 6.91249 1.2041 6.91249C1.2041 6.91249 1.2041 6.91249 1.2041 6.91249C0.539002 6.91249 0 6.37348 0 5.70838C0 5.70838 0 5.70838 0 5.70838Z" fill="#4F679E" transform="matrix(1 0 0 1 9.543 2.408)" />
        </g>
        <g transform="translate(14.379 3.545)">
          <path d="M9.18027 3.5501C8.9383 2.56113 8.37889 1.67872 7.58767 1.03794C6.79645 0.397163 5.81704 0.0333423 4.79937 0.00218267C3.78171 -0.0289787 2.78187 0.274232 1.95293 0.865396C1.124 1.45656 0.511639 2.3031 0.209612 3.27541C-0.0924139 4.24772 -0.0674596 5.29221 0.280633 6.249C0.628757 7.20578 1.28082 8.02212 2.13704 8.57303C2.99326 9.12394 4.00643 9.37908 5.02143 9.29936C6.03645 9.21966 6.99739 8.80949 7.75711 8.13166C7.75711 8.13166 6.28587 6.48267 6.28587 6.48267C5.88668 6.83882 5.38176 7.05433 4.84842 7.09622C4.31508 7.1381 3.78271 7.00406 3.33282 6.71457C2.88292 6.42511 2.54029 5.99616 2.35739 5.49343C2.17448 4.99068 2.16136 4.44186 2.32007 3.93095C2.47877 3.42007 2.80053 2.97526 3.23609 2.66465C3.67164 2.35401 4.197 2.1947 4.73173 2.21106C5.26646 2.22744 5.7811 2.41861 6.19682 2.75529C6.61257 3.09199 6.90651 3.55565 7.03367 4.0753C7.03367 4.0753 9.18027 3.5501 9.18027 3.5501Z" fill="#4F679E" fill-rule="evenodd" transform="scale(1 1)" />
          <path d="M0.875643 0.630013C0.875643 0.630013 4.01136 0.0201132 4.01136 0.0201132C4.59802 -0.0939937 5.16595 0.288974 5.28005 0.875642C5.28005 0.875642 5.28005 0.875642 5.28005 0.875642C5.39416 1.46231 5.01119 2.03023 4.42452 2.14433C4.42452 2.14433 1.28881 2.75423 1.28881 2.75423C0.70214 2.86834 0.13422 2.48537 0.0201132 1.8987C0.0201132 1.8987 0.0201132 1.8987 0.0201132 1.8987C-0.0939944 1.31204 0.288976 0.74412 0.875643 0.630013C0.875643 0.630013 0.875643 0.630013 0.875643 0.630013Z" fill="#4F679E" transform="matrix(1 0 0 1 3.916 2.839)" />
          <path d="M0 1.10377C0 0.494176 0.494192 0 1.10381 0C1.71343 0 2.20762 0.494176 2.20762 1.10377C2.20762 1.71337 1.71343 2.20755 1.10381 2.20755C0.494192 2.20755 0 1.71337 0 1.10377Z" fill="#4F679E" fill-rule="evenodd" transform="matrix(1 0 0 1 7.028 2.81)" />
          <path d="M0 1.10378C0 0.494178 0.494189 0 1.1038 0C1.71342 0 2.20761 0.494178 2.20761 1.10378C2.20761 1.71338 1.71342 2.20755 1.1038 2.20755C0.494189 2.20755 0 1.71338 0 1.10378Z" fill="#4F679E" fill-rule="evenodd" transform="matrix(1 0 0 1 5.913 6.199)" />
        </g>
        <g>
          <path d="M1.3379 0C1.3379 0 5.63504 0 5.63504 0C6.37403 0 6.97294 0.598898 6.97294 1.3379C6.97294 1.3379 6.97294 1.34402 6.97294 1.34402C6.97294 2.08302 6.37403 2.68191 5.63504 2.68191C5.63504 2.68191 1.3379 2.68191 1.3379 2.68191C0.598898 2.68191 0 2.08302 0 1.34402C0 1.34402 0 1.3379 0 1.3379C0 0.598898 0.598898 0 1.3379 0C1.3379 0 1.3379 0 1.3379 0Z" fill="#4CAF50" transform="matrix(1 0 0 1 5.9 5.364)" />
          <path d="M11.0494 1.94763C10.0225 0.892344 8.6648 0.221067 7.20279 0.0457797C5.74075 -0.129508 4.26284 0.20179 3.01556 0.984411C1.76827 1.76703 0.82703 2.95365 0.348849 4.34634C-0.129333 5.73902 -0.115544 7.25355 0.387918 8.63729C0.891376 10.021 1.85406 11.1903 3.11539 11.9501C4.37672 12.7099 5.86043 13.0142 7.31903 12.8123C8.77761 12.6105 10.1229 11.9146 11.1304 10.8408C12.138 9.76695 12.7469 8.38015 12.8556 6.91167C12.8556 6.91167 10.1728 6.7131 10.1728 6.7131C10.1095 7.56784 9.7551 8.37504 9.16865 9.00006C8.58221 9.62509 7.79918 10.0301 6.95019 10.1476C6.10123 10.2651 5.23761 10.088 4.50346 9.64576C3.76929 9.20354 3.20895 8.52295 2.91591 7.71751C2.62286 6.91209 2.61484 6.03055 2.89316 5.21994C3.17149 4.40931 3.71934 3.71864 4.44533 3.2631C5.17132 2.80757 6.03157 2.61474 6.88254 2.71675C7.73353 2.81879 8.52378 3.2095 9.12154 3.82375C9.12154 3.82375 11.0494 1.94763 11.0494 1.94763Z" fill="#4F679E" fill-rule="evenodd" transform="scale(1 1)" />
          <path d="M0 1.35277C0 0.605654 0.605654 0 1.35277 0C2.09988 0 2.70553 0.605654 2.70553 1.35277C2.70553 2.09988 2.09988 2.70553 1.35277 2.70553C0.605654 2.70553 0 2.09988 0 1.35277Z" fill="#FFC107" fill-rule="evenodd" transform="matrix(1 0 0 1 10.168 5.364)" />
          <path d="M0 1.34903C0 0.603982 0.603992 0 1.34905 0C2.09411 0 2.6981 0.603982 2.6981 1.34903C2.6981 2.09408 2.09411 2.69807 1.34905 2.69807C0.603992 2.69807 0 2.09408 0 1.34903Z" fill="#FFC107" fill-rule="evenodd" transform="matrix(1 0 0 1 8.763 1.561)" />
        </g>
      </g>
    </g>
  </g>
</svg>